<svg width="380" height="75" viewBox="0 0 380 75" fill="none" xmlns="http://www.w3.org/2000/svg">
<path d="M41.0769 33.1689L44.9259 37.7716L44.9285 37.7695L41.0769 33.1689ZM23.4622 37.7075V31.7075H18.5731L17.5858 36.4959L23.4622 37.7075ZM20.2883 53.1006V59.1006H25.1774L26.1647 54.3122L20.2883 53.1006ZM7.87866 53.1006L2.00835 51.8599L0.477988 59.1006H7.87866V53.1006ZM17.6858 6.69922V0.699219H12.8214L11.8155 5.4585L17.6858 6.69922ZM42.1243 10.3174L38.303 14.9432L38.3212 14.9582L38.3395 14.973L42.1243 10.3174ZM25.6838 27.5513L19.8155 26.3012L18.2711 33.5513H25.6838V27.5513ZM32.3489 25.7104L36.6653 29.878L36.6831 29.8596L36.7007 29.841L32.3489 25.7104ZM27.969 16.8237V10.8237H23.1125L22.1007 15.5737L27.969 16.8237ZM40.5359 20.6006C40.5359 24.4032 39.3246 26.8108 37.2253 28.5684L44.9285 37.7695C50.1078 33.4333 52.5359 27.462 52.5359 20.6006H40.5359ZM37.2279 28.5662C35.0058 30.4245 31.5666 31.7075 26.1917 31.7075V43.7075C33.4274 43.7075 39.9117 41.9648 44.9259 37.7716L37.2279 28.5662ZM26.1917 31.7075H23.4622V43.7075H26.1917V31.7075ZM17.5858 36.4959L14.4119 51.889L26.1647 54.3122L29.3385 38.9191L17.5858 36.4959ZM20.2883 47.1006H7.87866V59.1006H20.2883V47.1006ZM13.749 54.3413L23.5561 7.93994L11.8155 5.4585L2.00835 51.8599L13.749 54.3413ZM17.6858 12.6992H29.5242V0.699219H17.6858V12.6992ZM29.5242 12.6992C34.2176 12.6992 36.8488 13.7419 38.303 14.9432L45.9456 5.69161C41.5599 2.06867 35.791 0.699219 29.5242 0.699219V12.6992ZM38.3395 14.973C39.623 16.0165 40.5359 17.5842 40.5359 20.6006H52.5359C52.5359 14.6879 50.5077 9.40018 45.9091 5.66172L38.3395 14.973ZM25.6838 33.5513H27.6833V21.5513H25.6838V33.5513ZM27.6833 33.5513C31.0068 33.5513 34.1995 32.4319 36.6653 29.878L28.0325 21.5429C28.0203 21.5555 28.0245 21.549 28.0448 21.5354C28.0655 21.5215 28.0839 21.5129 28.0917 21.5098C28.1133 21.5013 28.0052 21.5513 27.6833 21.5513V33.5513ZM36.7007 29.841C39.0603 27.355 40.1262 24.2449 40.1262 20.9814H28.1262C28.1262 21.3061 28.0771 21.45 28.0655 21.481C28.0578 21.5014 28.0497 21.5244 27.997 21.5799L36.7007 29.841ZM40.1262 20.9814C40.1262 18.4153 39.2929 15.7903 37.2263 13.7237L28.741 22.209C28.5226 21.9905 28.3412 21.7113 28.2299 21.4175C28.125 21.1406 28.1262 20.9683 28.1262 20.9814H40.1262ZM37.2263 13.7237C35.0847 11.5821 32.3654 10.8237 29.8416 10.8237V22.8237C29.9422 22.8237 29.8246 22.8384 29.5764 22.7481C29.3054 22.6496 29.0017 22.4697 28.741 22.209L37.2263 13.7237ZM29.8416 10.8237H27.969V22.8237H29.8416V10.8237ZM22.1007 15.5737L19.8155 26.3012L31.5522 28.8013L33.8373 18.0738L22.1007 15.5737ZM53.5818 50.1489L49.3391 54.3916L49.3485 54.4009L49.3579 54.4102L53.5818 50.1489ZM52.5027 27.8687L47.0738 25.3139L47.0705 25.3208L47.0672 25.3278L52.5027 27.8687ZM59.6121 19.4897L62.8918 24.514L59.6121 19.4897ZM80.4958 20.0928L76.2532 24.3354L76.2626 24.3448L76.2719 24.3541L80.4958 20.0928ZM81.575 42.4048L76.146 39.85L76.1428 39.857L76.1395 39.864L81.575 42.4048ZM74.4973 50.752L71.2176 45.7277L74.4973 50.752ZM64.3728 30.1855L58.8437 27.8554L58.8396 27.8652L58.8355 27.875L64.3728 30.1855ZM70.8474 26.8213L65.8777 30.1831L65.9011 30.2178L65.925 30.252L70.8474 26.8213ZM63.8333 47.7354C60.496 47.7354 58.7845 46.8578 57.8057 45.8876L49.3579 54.4102C53.2033 58.2219 58.3261 59.7354 63.8333 59.7354V47.7354ZM57.8244 45.9063C56.8791 44.9609 55.9954 43.2685 55.9954 39.8975H43.9954C43.9954 45.4131 45.5026 50.555 49.3391 54.3916L57.8244 45.9063ZM55.9954 39.8975C55.9954 36.2213 56.6827 33.0953 57.9381 30.4095L47.0672 25.3278C44.9796 29.7937 43.9954 34.6869 43.9954 39.8975H55.9954ZM57.9316 30.4234C59.1961 27.7364 60.8618 25.8392 62.8918 24.514L56.3323 14.4655C52.2686 17.1182 49.1947 20.8069 47.0738 25.3139L57.9316 30.4234ZM62.8918 24.514C64.852 23.2344 67.238 22.5063 70.2761 22.5063V10.5063C65.1893 10.5063 60.4659 11.7672 56.3323 14.4655L62.8918 24.514ZM70.2761 22.5063C73.6166 22.5063 75.3027 23.385 76.2532 24.3354L84.7385 15.8501C80.9071 12.0187 75.7801 10.5063 70.2761 10.5063V22.5063ZM76.2719 24.3541C77.2281 25.3018 78.114 26.9875 78.114 30.3442H90.114C90.114 24.8143 88.5878 19.6656 84.7198 15.8315L76.2719 24.3541ZM78.114 30.3442C78.114 34.009 77.4205 37.1418 76.146 39.85L87.0039 44.9596C89.1148 40.4738 90.114 35.5662 90.114 30.3442H78.114ZM76.1395 39.864C74.8995 42.5165 73.2495 44.4013 71.2176 45.7277L77.777 55.7762C81.8389 53.1248 84.9073 49.4447 87.0104 44.9456L76.1395 39.864ZM71.2176 45.7277C69.2574 47.0073 66.8714 47.7354 63.8333 47.7354V59.7354C68.9201 59.7354 73.6435 58.4745 77.777 55.7762L71.2176 45.7277ZM68.8479 19.7422C63.1075 19.7422 60.1962 24.6461 58.8437 27.8554L69.9019 32.5157C70.1207 31.9964 70.3126 31.6327 70.4617 31.3909C70.6129 31.1458 70.6875 31.0788 70.6554 31.1107C70.6181 31.1478 70.4384 31.3154 70.0953 31.4729C69.7321 31.6396 69.2985 31.7422 68.8479 31.7422V19.7422ZM58.8355 27.875C57.2494 31.6762 56.532 35.8599 56.532 40.3101H68.532C68.532 37.143 69.0417 34.5771 69.9101 32.4961L58.8355 27.875ZM56.532 40.3101C56.532 42.1551 56.7883 44.5626 58.1256 46.6799C59.7561 49.2617 62.4189 50.5312 65.198 50.5312V38.5312C65.555 38.5312 66.1599 38.6063 66.8322 38.9611C67.5216 39.325 67.9929 39.831 68.2714 40.272C68.5244 40.6725 68.5753 40.9464 68.5699 40.9208C68.5657 40.9008 68.532 40.7163 68.532 40.3101H56.532ZM65.198 50.5312C70.8961 50.5312 73.8157 45.6623 75.1818 42.4975L64.1644 37.7418C63.941 38.2592 63.7456 38.6231 63.5934 38.8664C63.439 39.113 63.3615 39.1835 63.3899 39.1555C63.4231 39.1229 63.5995 38.9582 63.94 38.802C64.3008 38.6364 64.7376 38.5312 65.198 38.5312V50.5312ZM75.1818 42.4975C76.8324 38.6737 77.5774 34.454 77.5774 29.9634H65.5774C65.5774 33.1323 65.0529 35.6834 64.1644 37.7418L75.1818 42.4975ZM77.5774 29.9634C77.5774 28.0545 77.2782 25.5548 75.7698 23.3905L65.925 30.252C65.6337 29.8341 65.5579 29.5198 65.5505 29.4883C65.5454 29.4663 65.5529 29.492 65.5613 29.5759C65.5696 29.6593 65.5774 29.7864 65.5774 29.9634H77.5774ZM75.8171 23.4594C74.2495 21.1422 71.7478 19.7422 68.8479 19.7422V31.7422C68.3951 31.7422 67.7741 31.6381 67.1329 31.2921C66.4978 30.9493 66.0961 30.506 65.8777 30.1831L75.8171 23.4594ZM108.489 29.8682L106.166 24.3363L106.146 24.3447L106.125 24.3533L108.489 29.8682ZM100.745 26.1865L99.4306 20.3322L99.4178 20.3351L100.745 26.1865ZM95.0637 28.0908L89.3185 29.8206L91.3121 36.4423L97.5865 33.5347L95.0637 28.0908ZM92.3977 19.2358L90.4529 13.5598L84.9866 15.4327L86.6525 20.9656L92.3977 19.2358ZM118.677 18.855L115.41 23.8877L115.426 23.8978L115.441 23.9078L118.677 18.855ZM120.359 31.0107L115.953 26.9383L115.936 26.9564L115.919 26.9747L120.359 31.0107ZM114.297 34.375L112.545 28.6366L108.297 29.9336V34.375H114.297ZM114.297 34.6289H108.297V39.2417L112.755 40.4273L114.297 34.6289ZM118.74 37.2949L114.009 40.9841L114.028 41.0089L114.048 41.0334L118.74 37.2949ZM93.4451 52.9736L92.1435 58.8308L92.1549 58.8333L93.4451 52.9736ZM87.8591 51.0059H81.8591V54.5262L84.9322 56.2435L87.8591 51.0059ZM87.8591 41.6748L90.3524 36.2174L81.8591 32.3372V41.6748H87.8591ZM106.045 39.0723L103.618 44.5595L103.681 44.5874L103.745 44.6138L106.045 39.0723ZM96.6824 38.3423L90.8219 37.0558L89.2224 44.3423H96.6824V38.3423ZM98.3962 30.5347V24.5347H93.5705L92.5358 29.2482L98.3962 30.5347ZM103.252 36.5347C105.786 36.5347 108.605 36.3462 110.853 35.383L106.125 24.3533C106.322 24.2691 106.237 24.3407 105.645 24.4161C105.099 24.4855 104.317 24.5347 103.252 24.5347V36.5347ZM110.812 35.4001C111.961 34.9175 113.306 34.1172 114.379 32.765C115.525 31.3211 116.076 29.6026 116.076 27.8687H104.076C104.076 27.0234 104.363 26.0824 104.979 25.3051C105.524 24.6194 106.075 24.3745 106.166 24.3363L110.812 35.4001ZM116.076 27.8687C116.076 25.5131 115.151 22.6291 112.301 20.8991L106.073 31.1566C105.397 30.746 104.815 30.1219 104.45 29.3663C104.114 28.6687 104.076 28.0992 104.076 27.8687H116.076ZM112.301 20.8991C110.207 19.6279 107.758 19.4883 106.172 19.4883V31.4883C106.402 31.4883 106.581 31.4957 106.714 31.5055C106.848 31.5155 106.917 31.5267 106.932 31.5294C106.95 31.5324 106.879 31.5214 106.746 31.4763C106.614 31.432 106.372 31.338 106.073 31.1566L112.301 20.8991ZM106.172 19.4883C104.055 19.4883 101.787 19.8033 99.4306 20.3322L102.059 32.0408C103.85 31.6388 105.2 31.4883 106.172 31.4883V19.4883ZM99.4178 20.3351C96.9943 20.8848 94.6952 21.6487 92.541 22.647L97.5865 33.5347C98.9023 32.9249 100.391 32.4192 102.072 32.0379L99.4178 20.3351ZM100.809 26.3611L98.143 17.5061L86.6525 20.9656L89.3185 29.8206L100.809 26.3611ZM94.3425 24.9119C99.0958 23.2833 103.623 22.5063 107.949 22.5063V10.5063C102.162 10.5063 96.3213 11.5491 90.4529 13.5598L94.3425 24.9119ZM107.949 22.5063C112.206 22.5063 114.415 23.2415 115.41 23.8877L121.944 13.8223C118.115 11.337 113.172 10.5063 107.949 10.5063V22.5063ZM115.441 23.9078C116.032 24.2859 116.295 24.5988 116.295 25.6787H128.295C128.295 20.7495 126.146 16.5133 121.913 13.8022L115.441 23.9078ZM116.295 25.6787C116.295 26.5464 116.079 26.8015 115.953 26.9383L124.765 35.0832C127.22 32.427 128.295 29.1274 128.295 25.6787H116.295ZM115.919 26.9747C115.666 27.2539 114.793 27.9502 112.545 28.6366L116.049 40.1134C119.345 39.1071 122.513 37.5606 124.799 35.0468L115.919 26.9747ZM108.297 34.375V34.6289H120.297V34.375H108.297ZM112.755 40.4273C113.307 40.5741 113.636 40.7309 113.813 40.8371C113.899 40.8891 113.95 40.929 113.975 40.9512C114 40.9728 114.008 40.9838 114.009 40.9841L123.472 33.6057C121.482 31.0525 118.712 29.5946 115.839 28.8305L112.755 40.4273ZM114.048 41.0334C114.131 41.1384 114.232 41.2753 114.232 41.7383H126.232C126.232 38.7736 125.339 35.9482 123.433 33.5565L114.048 41.0334ZM114.232 41.7383C114.232 43.5126 113.663 44.5695 112.106 45.5536L118.519 55.6964C123.522 52.5334 126.232 47.6658 126.232 41.7383H114.232ZM112.106 45.5536C110.177 46.7734 106.828 47.7354 101.38 47.7354V59.7354C107.95 59.7354 113.889 58.6237 118.519 55.6964L112.106 45.5536ZM101.38 47.7354C98.7224 47.7354 96.5242 47.5079 94.7353 47.114L92.1549 58.8333C94.9786 59.455 98.0701 59.7354 101.38 59.7354V47.7354ZM94.7467 47.1165C92.8124 46.6867 91.5521 46.1963 90.7861 45.7682L84.9322 56.2435C87.0437 57.4235 89.5075 58.245 92.1435 58.8308L94.7467 47.1165ZM93.8591 51.0059V41.6748H81.8591V51.0059H93.8591ZM85.3659 47.1322C90.2593 49.3678 95.3273 50.5312 100.523 50.5312V38.5312C97.17 38.5312 93.7955 37.7904 90.3524 36.2174L85.3659 47.1322ZM100.523 50.5312C103.162 50.5312 105.926 50.2816 108.242 49.3123C109.461 48.8025 110.859 47.968 111.97 46.5734C113.155 45.086 113.727 43.3137 113.727 41.5161H101.727C101.727 40.7235 102 39.8307 102.584 39.0971C103.094 38.4563 103.592 38.2499 103.61 38.2426C103.632 38.2333 103.421 38.3201 102.846 38.4003C102.291 38.4778 101.528 38.5312 100.523 38.5312V50.5312ZM113.727 41.5161C113.727 39.9394 113.333 38.2056 112.249 36.6305C111.177 35.0732 109.73 34.1055 108.345 33.5307L103.745 44.6138C103.482 44.5045 102.876 44.1768 102.364 43.4342C101.841 42.6737 101.727 41.9291 101.727 41.5161H113.727ZM108.472 33.5851C106.218 32.588 103.572 32.3423 101.126 32.3423V44.3423C102.007 44.3423 102.655 44.3924 103.109 44.4598C103.582 44.5299 103.707 44.5989 103.618 44.5595L108.472 33.5851ZM101.126 32.3423H96.6824V44.3423H101.126V32.3423ZM102.543 39.6287L104.257 31.8211L92.5358 29.2482L90.8219 37.0558L102.543 39.6287ZM98.3962 36.5347H103.252V24.5347H98.3962V36.5347ZM141.751 30.8838L135.893 29.5851L133.648 39.7113L143.545 36.6091L141.751 30.8838ZM155.271 33.0103L151.33 37.534L151.341 37.5436L151.352 37.5532L155.271 33.0103ZM128.167 37.2314L134 38.6376L134.016 38.5693L134.031 38.5006L128.167 37.2314ZM132.515 17.1411V11.1411H127.675L126.651 15.8719L132.515 17.1411ZM144.798 17.1411L150.655 18.4398L152.274 11.1411H144.798V17.1411ZM139.973 39.0723L137.767 33.4925L134.855 34.6438L134.135 37.691L139.973 39.0723ZM140.132 44.8169L136.679 49.7237L136.721 49.7531L136.763 49.7817L140.132 44.8169ZM145.083 44.5312L141.132 40.0158L141.097 40.0469L141.062 40.0786L145.083 44.5312ZM145.305 39.4849L140.62 43.233L140.689 43.3191L140.761 43.4025L145.305 39.4849ZM174.124 53.1006V59.1006H178.982L179.992 54.3489L174.124 53.1006ZM161.809 53.1006L155.94 51.8572L154.405 59.1006H161.809V53.1006ZM169.427 17.1411V11.1411H164.564L163.557 15.8977L169.427 17.1411ZM181.773 17.1411L187.641 18.3894L189.183 11.1411H181.773V17.1411ZM143.545 36.6091C144.257 36.3861 145.27 36.2173 146.67 36.2173V24.2173C144.347 24.2173 142.08 24.4928 139.956 25.1584L143.545 36.6091ZM146.67 36.2173C149.22 36.2173 150.554 36.8581 151.33 37.534L159.213 28.4865C155.714 25.4384 151.315 24.2173 146.67 24.2173V36.2173ZM151.352 37.5532C152.11 38.207 152.509 38.9428 152.509 40.3101H164.509C164.509 35.6682 162.749 31.5374 159.191 28.4673L151.352 37.5532ZM152.509 40.3101C152.509 43.2514 151.624 44.6852 150.461 45.609L157.923 55.0063C162.515 51.3597 164.509 46.1285 164.509 40.3101H152.509ZM150.461 45.609C149.113 46.6795 146.343 47.7354 141.084 47.7354V59.7354C147.548 59.7354 153.516 58.506 157.923 55.0063L150.461 45.609ZM141.084 47.7354C137.41 47.7354 135.423 46.998 134.403 46.2735L127.453 56.0556C131.257 58.7589 136.041 59.7354 141.084 59.7354V47.7354ZM134.403 46.2735C133.787 45.836 133.31 45.266 133.31 43.6108H121.31C121.31 48.5996 123.244 53.0654 127.453 56.0556L134.403 46.2735ZM133.31 43.6108C133.31 42.3163 133.509 40.674 134 38.6376L122.334 35.8253C121.682 38.5285 121.31 41.1391 121.31 43.6108H133.31ZM134.031 38.5006L138.379 18.4103L126.651 15.8719L122.303 35.9623L134.031 38.5006ZM132.515 23.1411H144.798V11.1411H132.515V23.1411ZM138.94 15.8424L135.893 29.5851L147.608 32.1825L150.655 18.4398L138.94 15.8424ZM143.242 32.5327C141.432 32.5327 139.554 32.7861 137.767 33.4925L142.179 44.652C142.212 44.6391 142.514 44.5327 143.242 44.5327V32.5327ZM134.135 37.691C133.689 39.5746 133.275 41.5785 133.275 43.103H145.275C145.275 43.267 145.262 43.1563 145.362 42.5799C145.45 42.0699 145.596 41.3696 145.812 40.4535L134.135 37.691ZM133.275 43.103C133.275 45.6577 134.401 48.1206 136.679 49.7237L143.585 39.9101C144.034 40.2257 144.514 40.7198 144.856 41.4036C145.191 42.0745 145.275 42.6904 145.275 43.103H133.275ZM136.763 49.7817C138.703 51.098 140.851 51.4199 142.576 51.4199V39.4199C142.433 39.4199 142.467 39.4049 142.625 39.4439C142.791 39.4849 143.118 39.5921 143.501 39.852L136.763 49.7817ZM142.576 51.4199C144.841 51.4199 147.183 50.7203 149.105 48.9839L141.062 40.0786C141.322 39.8432 141.635 39.6576 141.96 39.5425C142.272 39.4319 142.499 39.4199 142.576 39.4199V51.4199ZM149.034 49.0467C151.349 47.0217 152.099 44.2999 152.099 41.9287H140.099C140.099 41.9178 140.1 41.6545 140.256 41.255C140.424 40.823 140.719 40.3773 141.132 40.0158L149.034 49.0467ZM152.099 41.9287C152.099 39.8516 151.538 37.5249 149.85 35.5672L140.761 43.4025C140.475 43.071 140.294 42.7162 140.194 42.4089C140.1 42.1185 140.099 41.9365 140.099 41.9287H152.099ZM149.991 35.7367C148.259 33.5721 145.792 32.5327 143.242 32.5327V44.5327C142.934 44.5327 142.446 44.473 141.894 44.2185C141.331 43.9586 140.905 43.5885 140.62 43.233L149.991 35.7367ZM174.124 47.1006H161.809V59.1006H174.124V47.1006ZM167.679 54.344L175.296 18.3845L163.557 15.8977L155.94 51.8572L167.679 54.344ZM169.427 23.1411H181.773V11.1411H169.427V23.1411ZM175.904 15.8928L168.255 51.8523L179.992 54.3489L187.641 18.3894L175.904 15.8928ZM187.866 19.4897L184.953 14.2448L180.449 16.7466L182.241 21.5766L187.866 19.4897ZM193.897 17.2998L195.187 23.1594L195.207 23.1551L195.226 23.1506L193.897 17.2998ZM210.496 19.1724L206.854 23.941L206.868 23.9515L206.882 23.9619L210.496 19.1724ZM212.686 32.7246L207.405 29.8759L207.398 29.8885L207.392 29.9011L212.686 32.7246ZM208.433 36.9141L205.322 31.7836L205.31 31.791L205.297 31.7985L208.433 36.9141ZM199.641 40.564L201.415 46.2957L201.43 46.2911L201.445 46.2864L199.641 40.564ZM196.404 41.8652L192.563 37.2559L192.498 37.3102L192.434 37.3662L196.404 41.8652ZM196.531 44.3091L193.373 49.4107L193.425 49.4432L193.479 49.4746L196.531 44.3091ZM209.702 41.8018H215.702V32.3806L207.165 36.3647L209.702 41.8018ZM209.702 50.8154L212.432 56.1586L215.702 54.4878V50.8154H209.702ZM203.545 53.0371L204.822 58.8996L204.844 58.895L204.865 58.8902L203.545 53.0371ZM186.66 50.9106L182.756 55.4662L182.768 55.477L182.781 55.4877L186.66 50.9106ZM186.375 35.3271L190.526 39.6591L190.527 39.6581L186.375 35.3271ZM196.245 30.4077L194.667 24.6191L194.621 24.6316L194.576 24.6447L196.245 30.4077ZM199.514 29.2969L202.019 34.7489L199.514 29.2969ZM190.786 27.3608L185.161 29.4477L187.565 35.9292L193.644 32.6366L190.786 27.3608ZM190.78 24.7347C191.894 24.1159 193.337 23.5668 195.187 23.1594L192.607 11.4402C189.844 12.0484 187.266 12.9593 184.953 14.2448L190.78 24.7347ZM195.226 23.1506C197.141 22.7154 198.991 22.5063 200.784 22.5063V10.5063C198.049 10.5063 195.307 10.8262 192.567 11.449L195.226 23.1506ZM200.784 22.5063C204.148 22.5063 205.929 23.2347 206.854 23.941L214.137 14.4038C210.407 11.5553 205.714 10.5063 200.784 10.5063V22.5063ZM206.882 23.9619C207.559 24.473 207.987 25.0833 207.987 26.5674H219.987C219.987 21.7038 218.087 17.3841 214.11 14.3828L206.882 23.9619ZM207.987 26.5674C207.987 28.417 207.659 29.4049 207.405 29.8759L217.966 35.5733C219.447 32.8282 219.987 29.7113 219.987 26.5674H207.987ZM207.392 29.9011C207.181 30.2965 206.654 30.9759 205.322 31.7836L211.544 42.0445C214.19 40.4401 216.498 38.3266 217.98 35.5481L207.392 29.9011ZM205.297 31.7985C203.949 32.625 201.562 33.6674 197.838 34.8415L201.445 46.2864C205.507 45.0061 208.981 43.6152 211.568 42.0297L205.297 31.7985ZM197.867 34.8322C196.903 35.1308 196.015 35.4317 195.261 35.7348C194.711 35.9558 193.549 36.4342 192.563 37.2559L200.245 46.4746C200.028 46.6556 199.849 46.7727 199.755 46.8315C199.655 46.8942 199.586 46.9301 199.566 46.9407C199.53 46.9587 199.575 46.9341 199.737 46.869C200.062 46.7383 200.603 46.5472 201.415 46.2957L197.867 34.8322ZM192.434 37.3662C190.588 38.9956 189.865 41.1749 189.865 43.1665H201.865C201.865 43.5467 201.801 44.1012 201.542 44.7267C201.274 45.3722 200.864 45.9321 200.374 46.3643L192.434 37.3662ZM189.865 43.1665C189.865 45.9094 191.319 48.1392 193.373 49.4107L199.689 39.2075C200.147 39.4912 200.746 39.9924 201.214 40.7939C201.692 41.6142 201.865 42.4607 201.865 43.1665H189.865ZM193.479 49.4746C194.631 50.1554 195.796 50.4182 196.572 50.5427C197.418 50.6785 198.285 50.7217 199.102 50.7217V38.7217C198.897 38.7217 198.742 38.716 198.63 38.7087C198.516 38.7012 198.468 38.6934 198.474 38.6943C198.475 38.6946 198.574 38.7099 198.741 38.7619C198.901 38.8118 199.208 38.9217 199.583 39.1435L193.479 49.4746ZM199.102 50.7217C201.087 50.7217 203.263 50.3109 205.452 49.7225L202.337 38.1339C200.59 38.6035 199.571 38.7217 199.102 38.7217V50.7217ZM205.452 49.7225C207.766 49.1004 210.03 48.2702 212.24 47.2389L207.165 36.3647C205.566 37.1107 203.958 37.6981 202.337 38.1339L205.452 49.7225ZM203.702 41.8018V50.8154H215.702V41.8018H203.702ZM206.973 45.4723C205.478 46.2357 203.9 46.8064 202.225 47.1841L204.865 58.8902C207.507 58.2945 210.033 57.384 212.432 56.1586L206.973 45.4723ZM202.268 47.1746C200.639 47.5295 198.646 47.7354 196.245 47.7354V59.7354C199.303 59.7354 202.177 59.4757 204.822 58.8996L202.268 47.1746ZM196.245 47.7354C192.896 47.7354 191.293 46.972 190.54 46.3336L182.781 55.4877C186.471 58.6155 191.258 59.7354 196.245 59.7354V47.7354ZM190.565 46.3551C189.932 45.8124 189.328 44.9291 189.328 42.8174H177.328C177.328 47.6881 178.945 52.2003 182.756 55.4662L190.565 46.3551ZM189.328 42.8174C189.328 41.2553 189.78 40.3738 190.526 39.6591L182.223 30.9952C178.907 34.1738 177.328 38.2857 177.328 42.8174H189.328ZM190.527 39.6581C191.563 38.6649 193.778 37.3694 197.915 36.1707L194.576 24.6447C189.657 26.0698 185.291 28.0538 182.222 30.9961L190.527 39.6581ZM197.824 36.1963C199.356 35.7786 200.804 35.3072 202.019 34.7489L197.009 23.8448C196.659 24.006 195.928 24.2751 194.667 24.6191L197.824 36.1963ZM202.019 34.7489C203.053 34.2742 204.513 33.4914 205.664 32.1875L196.666 24.248C196.824 24.0685 196.962 23.9443 197.053 23.869C197.145 23.7929 197.209 23.7497 197.231 23.7355C197.267 23.7119 197.209 23.7532 197.009 23.8448L202.019 34.7489ZM205.664 32.1875C207.308 30.3244 207.641 28.1371 207.641 26.6309H195.641C195.641 26.5211 195.657 25.3917 196.666 24.248L205.664 32.1875ZM207.641 26.6309C207.641 24.13 206.466 21.6981 204.123 20.2337C202.25 19.063 200.21 18.8853 198.848 18.8853V30.8853C199.348 30.8853 198.705 30.9984 197.763 30.4096C197.205 30.061 196.603 29.4984 196.172 28.6907C195.75 27.8984 195.641 27.1509 195.641 26.6309H207.641ZM198.848 18.8853C195.152 18.8853 191.457 20.174 187.929 22.0851L193.644 32.6366C196.21 31.2469 197.888 30.8853 198.848 30.8853V18.8853ZM196.412 25.274L193.492 17.4029L182.241 21.5766L185.161 29.4477L196.412 25.274ZM228.745 49.1333L233.875 46.0204L232.122 43.1333H228.745V49.1333ZM228.491 49.1333V43.1333H222.91L222.507 48.7007L228.491 49.1333ZM226.714 60.9082L220.848 59.6491L220.843 59.6696L220.839 59.6902L226.714 60.9082ZM225.095 68.7158V74.7158H229.979L230.971 69.9338L225.095 68.7158ZM212.813 68.7158L206.943 67.4732L205.41 74.7158H212.813V68.7158ZM223.731 17.1411V11.1411H218.868L217.861 15.8985L223.731 17.1411ZM233.538 17.1411L239.511 17.7055L240.132 11.1411H233.538V17.1411ZM233.157 21.1719L227.184 20.6075L226.563 27.1719H233.157V21.1719ZM233.411 21.1719V27.1719H236.659L238.435 24.4526L233.411 21.1719ZM249.375 20.061L244.678 23.7938L244.686 23.8041L244.694 23.8143L249.375 20.061ZM249.978 41.9287L255.566 44.1139L255.57 44.1034L249.978 41.9287ZM244.075 50.6885L247.92 55.2945L247.924 55.2913L244.075 50.6885ZM231.634 33.0737L225.853 31.4648L225.846 31.4925L225.838 31.5203L231.634 33.0737ZM231.538 42.627L226.37 45.6749L231.538 42.627ZM238.775 37.1997L233.015 35.5197L233.007 35.5474L232.999 35.5752L238.775 37.1997ZM236.077 47.7354C235.569 47.7354 234.886 47.6875 233.875 46.0204L223.616 52.2462C226.328 56.7152 230.534 59.7354 236.077 59.7354V47.7354ZM228.745 43.1333H228.491V55.1333H228.745V43.1333ZM222.507 48.7007C222.278 51.8747 221.734 55.5175 220.848 59.6491L232.581 62.1673C233.556 57.6238 234.197 53.4166 234.476 49.5659L222.507 48.7007ZM220.839 59.6902L219.22 67.4978L230.971 69.9338L232.589 62.1262L220.839 59.6902ZM225.095 62.7158H212.813V74.7158H225.095V62.7158ZM218.683 69.9584L229.601 18.3837L217.861 15.8985L206.943 67.4732L218.683 69.9584ZM223.731 23.1411H233.538V11.1411H223.731V23.1411ZM227.564 16.5767L227.184 20.6075L239.13 21.7363L239.511 17.7055L227.564 16.5767ZM233.157 27.1719H233.411V15.1719H233.157V27.1719ZM238.435 24.4526C239.468 22.8698 240.392 22.5063 241.599 22.5063V10.5063C235.951 10.5063 231.416 13.2533 228.387 17.8911L238.435 24.4526ZM241.599 22.5063C243.26 22.5063 244.046 22.9986 244.678 23.7938L254.073 16.3282C250.938 12.3839 246.54 10.5063 241.599 10.5063V22.5063ZM244.694 23.8143C245.455 24.7637 246.2 26.5102 246.2 29.7729H258.2C258.2 24.7837 257.061 20.0556 254.056 16.3077L244.694 23.8143ZM246.2 29.7729C246.2 33.3628 245.584 36.6738 244.386 39.754L255.57 44.1034C257.335 39.5665 258.2 34.7736 258.2 29.7729H246.2ZM244.39 39.7435C243.179 42.8408 241.725 44.8324 240.226 46.0857L247.924 55.2913C251.334 52.4397 253.815 48.5915 255.566 44.1139L244.39 39.7435ZM240.23 46.0824C238.767 47.3033 237.436 47.7354 236.077 47.7354V59.7354C240.516 59.7354 244.516 58.1362 247.92 55.2945L240.23 46.0824ZM236.934 20.377C233.321 20.377 230.764 22.4994 229.209 24.4682L238.628 31.9039C238.787 31.703 238.754 31.806 238.474 31.9742C238.147 32.1701 237.607 32.377 236.934 32.377V20.377ZM229.209 24.4682C227.613 26.4907 226.561 28.9218 225.853 31.4648L237.414 34.6827C237.849 33.1208 238.32 32.2935 238.628 31.9039L229.209 24.4682ZM225.838 31.5203C225.153 34.0772 224.808 36.6835 224.808 39.3262H236.808C236.808 37.7371 237.014 36.1751 237.429 34.6271L225.838 31.5203ZM224.808 39.3262C224.808 41.3331 225.152 43.6091 226.37 45.6749L236.707 39.579C236.835 39.7967 236.858 39.9265 236.849 39.8872C236.84 39.8436 236.808 39.6698 236.808 39.3262H224.808ZM226.37 45.6749C227.833 48.1561 230.395 49.8647 233.601 49.8647V37.8647C234.123 37.8647 234.819 37.998 235.506 38.4103C236.172 38.8101 236.54 39.2973 236.707 39.579L226.37 45.6749ZM233.601 49.8647C237.261 49.8647 239.79 47.6407 241.271 45.722L231.772 38.3894C231.609 38.6002 231.643 38.4917 231.933 38.3121C232.271 38.1024 232.855 37.8647 233.601 37.8647V49.8647ZM241.271 45.722C242.815 43.7218 243.846 41.3302 244.551 38.8242L232.999 35.5752C232.561 37.1317 232.09 37.9775 231.772 38.3894L241.271 45.722ZM244.535 38.8797C245.288 36.2972 245.663 33.6471 245.663 30.9473H233.663C233.663 32.5215 233.446 34.0398 233.015 35.5197L244.535 38.8797ZM245.663 30.9473C245.663 29.0226 245.411 26.5841 244.132 24.4431C242.561 21.8121 239.89 20.377 236.934 20.377V32.377C236.534 32.377 235.894 32.2868 235.204 31.9018C234.507 31.5128 234.068 30.9944 233.83 30.596C233.615 30.2366 233.589 30.0216 233.608 30.1192C233.626 30.208 233.663 30.4662 233.663 30.9473H245.663ZM272.005 30.8838L266.147 29.5851L263.902 39.7113L273.799 36.6091L272.005 30.8838ZM285.525 33.0103L281.584 37.534L281.595 37.5436L281.606 37.5532L285.525 33.0103ZM258.421 37.2314L264.254 38.6376L264.27 38.5693L264.285 38.5006L258.421 37.2314ZM262.769 17.1411V11.1411H257.928L256.905 15.8719L262.769 17.1411ZM275.052 17.1411L280.909 18.4398L282.527 11.1411H275.052V17.1411ZM270.227 39.0723L268.021 33.4925L265.109 34.6438L264.388 37.691L270.227 39.0723ZM270.386 44.8169L266.933 49.7237L266.975 49.7531L267.017 49.7817L270.386 44.8169ZM275.337 44.5312L271.386 40.0158L271.351 40.0469L271.315 40.0786L275.337 44.5312ZM275.559 39.4849L270.874 43.233L270.943 43.3191L271.015 43.4025L275.559 39.4849ZM304.378 53.1006V59.1006H309.236L310.246 54.3489L304.378 53.1006ZM292.063 53.1006L286.193 51.8572L284.659 59.1006H292.063V53.1006ZM299.68 17.1411V11.1411H294.818L293.811 15.8977L299.68 17.1411ZM312.027 17.1411L317.895 18.3894L319.437 11.1411H312.027V17.1411ZM273.799 36.6091C274.511 36.3861 275.524 36.2173 276.924 36.2173V24.2173C274.6 24.2173 272.334 24.4928 270.21 25.1584L273.799 36.6091ZM276.924 36.2173C279.474 36.2173 280.808 36.8581 281.584 37.534L289.467 28.4865C285.968 25.4384 281.569 24.2173 276.924 24.2173V36.2173ZM281.606 37.5532C282.364 38.207 282.762 38.9428 282.762 40.3101H294.762C294.762 35.6682 293.003 31.5374 289.445 28.4673L281.606 37.5532ZM282.762 40.3101C282.762 43.2514 281.878 44.6852 280.715 45.609L288.177 55.0063C292.769 51.3597 294.762 46.1285 294.762 40.3101H282.762ZM280.715 45.609C279.367 46.6795 276.597 47.7354 271.338 47.7354V59.7354C277.801 59.7354 283.77 58.506 288.177 55.0063L280.715 45.609ZM271.338 47.7354C267.664 47.7354 265.677 46.998 264.657 46.2735L257.707 56.0556C261.511 58.7589 266.294 59.7354 271.338 59.7354V47.7354ZM264.657 46.2735C264.041 45.836 263.564 45.266 263.564 43.6108H251.564C251.564 48.5996 253.498 53.0654 257.707 56.0556L264.657 46.2735ZM263.564 43.6108C263.564 42.3163 263.763 40.674 264.254 38.6376L252.588 35.8253C251.936 38.5285 251.564 41.1391 251.564 43.6108H263.564ZM264.285 38.5006L268.633 18.4103L256.905 15.8719L252.556 35.9623L264.285 38.5006ZM262.769 23.1411H275.052V11.1411H262.769V23.1411ZM269.194 15.8424L266.147 29.5851L277.862 32.1825L280.909 18.4398L269.194 15.8424ZM273.496 32.5327C271.686 32.5327 269.808 32.7861 268.021 33.4925L272.433 44.652C272.466 44.6391 272.768 44.5327 273.496 44.5327V32.5327ZM264.388 37.691C263.943 39.5746 263.529 41.5785 263.529 43.103H275.529C275.529 43.267 275.516 43.1563 275.616 42.5799C275.704 42.0699 275.849 41.3696 276.066 40.4535L264.388 37.691ZM263.529 43.103C263.529 45.6577 264.655 48.1206 266.933 49.7237L273.839 39.9101C274.288 40.2257 274.768 40.7198 275.11 41.4036C275.445 42.0745 275.529 42.6904 275.529 43.103H263.529ZM267.017 49.7817C268.957 51.098 271.105 51.4199 272.83 51.4199V39.4199C272.687 39.4199 272.721 39.4049 272.879 39.4439C273.045 39.4849 273.372 39.5921 273.755 39.852L267.017 49.7817ZM272.83 51.4199C275.095 51.4199 277.436 50.7203 279.359 48.9839L271.315 40.0786C271.576 39.8432 271.889 39.6576 272.214 39.5425C272.526 39.4319 272.753 39.4199 272.83 39.4199V51.4199ZM279.288 49.0467C281.602 47.0217 282.353 44.2999 282.353 41.9287H270.353C270.353 41.9178 270.354 41.6545 270.509 41.255C270.678 40.823 270.973 40.3773 271.386 40.0158L279.288 49.0467ZM282.353 41.9287C282.353 39.8516 281.791 37.5249 280.104 35.5672L271.015 43.4025C270.729 43.071 270.547 42.7162 270.448 42.4089C270.353 42.1185 270.353 41.9365 270.353 41.9287H282.353ZM280.245 35.7367C278.513 33.5721 276.046 32.5327 273.496 32.5327V44.5327C273.188 44.5327 272.7 44.473 272.148 44.2185C271.585 43.9586 271.158 43.5885 270.874 43.233L280.245 35.7367ZM304.378 47.1006H292.063V59.1006H304.378V47.1006ZM297.933 54.344L305.55 18.3845L293.811 15.8977L286.193 51.8572L297.933 54.344ZM299.68 23.1411H312.027V11.1411H299.68V23.1411ZM306.158 15.8928L298.509 51.8523L310.246 54.3489L317.895 18.3894L306.158 15.8928ZM352.493 17.1411L358.368 18.3607L359.866 11.1411H352.493V17.1411ZM348.335 37.168L342.46 35.9483L342.436 36.0645L342.417 36.1816L348.335 37.168ZM353.731 41.7383L358.799 44.9503L358.809 44.9343L358.819 44.9183L353.731 41.7383ZM356.206 34.6289L362.07 35.9019L362.071 35.8955L356.206 34.6289ZM359.983 17.1411V11.1411H355.141L354.118 15.8745L359.983 17.1411ZM372.266 17.1411L378.136 18.3845L379.67 11.1411H372.266V17.1411ZM364.649 53.1006V59.1006H369.511L370.518 54.344L364.649 53.1006ZM354.842 53.1006L348.864 52.5864L348.303 59.1006H354.842V53.1006ZM355.349 47.1973L361.327 47.7115L361.888 41.1973H355.349V47.1973ZM355.095 47.1973V41.1973H351.521L349.819 44.3411L355.095 47.1973ZM350.843 52.2119L354.108 57.2457L354.116 57.2403L354.124 57.2349L350.843 52.2119ZM336.116 47.1973L341.923 45.6875L340.755 41.1973H336.116V47.1973ZM335.862 47.1973V41.1973H332.503L330.747 44.0608L335.862 47.1973ZM318.152 51.0693L313.623 55.0051L313.637 55.0203L313.65 55.0355L318.152 51.0693ZM316.565 36.6602L322.438 37.8881L322.442 37.8717L322.445 37.8552L316.565 36.6602ZM320.532 17.1411V11.1411H315.629L314.653 15.946L320.532 17.1411ZM332.815 17.1411L338.694 18.3429L340.166 11.1411H332.815V17.1411ZM328.721 37.168L334.542 38.6232L334.573 38.4971L334.599 38.3697L328.721 37.168ZM328.848 43.3569L324.399 47.3824L324.448 47.4365L324.498 47.4894L328.848 43.3569ZM334.275 41.6113L339.39 44.7483L339.399 44.7332L339.408 44.7181L334.275 41.6113ZM336.719 34.375L342.598 35.574L342.6 35.5663L336.719 34.375ZM340.21 17.1411V11.1411H335.304L334.33 15.9498L340.21 17.1411ZM346.618 15.9215L342.46 35.9483L354.21 38.3876L358.368 18.3607L346.618 15.9215ZM342.417 36.1816C342.118 37.9758 341.891 39.6847 341.891 41.0083H353.891C353.891 40.7661 353.96 39.9148 354.254 38.1544L342.417 36.1816ZM341.891 41.0083C341.891 42.5998 342.166 44.8935 343.699 46.8943C345.463 49.1979 347.997 49.9917 350.176 49.9917V37.9917C350.44 37.9917 350.952 38.0346 351.57 38.3036C352.224 38.5881 352.8 39.0416 353.225 39.5974C353.996 40.6037 353.891 41.4057 353.891 41.0083H341.891ZM350.176 49.9917C354.183 49.9917 357.066 47.6834 358.799 44.9503L348.663 38.5263C348.538 38.7236 348.588 38.5685 348.915 38.3608C349.082 38.2549 349.291 38.1556 349.532 38.0862C349.772 38.0168 349.994 37.9917 350.176 37.9917V49.9917ZM358.819 44.9183C360.325 42.5084 361.326 39.3287 362.07 35.9019L350.343 33.3559C349.69 36.3614 349.041 37.9213 348.643 38.5583L358.819 44.9183ZM362.071 35.8955L365.848 18.4077L354.118 15.8745L350.342 33.3623L362.071 35.8955ZM359.983 23.1411H372.266V11.1411H359.983V23.1411ZM366.396 15.8977L358.779 51.8572L370.518 54.344L378.136 18.3845L366.396 15.8977ZM364.649 47.1006H354.842V59.1006H364.649V47.1006ZM360.819 53.6148L361.327 47.7115L349.371 46.683L348.864 52.5864L360.819 53.6148ZM355.349 41.1973H355.095V53.1973H355.349V41.1973ZM349.819 44.3411C348.872 46.0898 348.055 46.8664 347.561 47.1889L354.124 57.2349C356.804 55.4839 358.822 52.9174 360.372 50.0534L349.819 44.3411ZM347.577 47.1781C347.269 47.3785 346.47 47.7354 344.717 47.7354V59.7354C348 59.7354 351.285 59.0766 354.108 57.2457L347.577 47.1781ZM344.717 47.7354C343.077 47.7354 342.712 47.3598 342.799 47.4321L335.146 56.6744C337.941 58.9895 341.406 59.7354 344.717 59.7354V47.7354ZM342.799 47.4321C342.63 47.2918 342.234 46.8845 341.923 45.6875L330.309 48.7071C331.098 51.7418 332.607 54.5718 335.146 56.6744L342.799 47.4321ZM336.116 41.1973H335.862V53.1973H336.116V41.1973ZM330.747 44.0608C329.745 45.6945 328.809 46.5491 328.064 46.9927L334.202 57.3042C337.011 55.6319 339.228 53.1857 340.977 50.3338L330.747 44.0608ZM328.064 46.9927C327.336 47.4263 326.362 47.7354 324.944 47.7354V59.7354C328.224 59.7354 331.376 58.9864 334.202 57.3042L328.064 46.9927ZM324.944 47.7354C323.239 47.7354 322.806 47.275 322.654 47.1031L313.65 55.0355C316.63 58.4183 320.724 59.7354 324.944 59.7354V47.7354ZM322.681 47.1336C322.452 46.8698 321.835 45.8905 321.835 43.1665H309.835C309.835 47.425 310.763 51.7141 313.623 55.0051L322.681 47.1336ZM321.835 43.1665C321.835 41.6358 322.021 39.8828 322.438 37.8881L310.692 35.4322C310.136 38.0924 309.835 40.677 309.835 43.1665H321.835ZM322.445 37.8552L326.412 18.3362L314.653 15.946L310.685 35.4651L322.445 37.8552ZM320.532 23.1411H332.815V11.1411H320.532V23.1411ZM326.937 15.9393L322.843 35.9662L334.599 38.3697L338.694 18.3429L326.937 15.9393ZM322.9 35.7128C322.445 37.5345 322.245 39.4395 322.245 41.3892H334.245C334.245 40.2497 334.362 39.3405 334.542 38.6232L322.9 35.7128ZM322.245 41.3892C322.245 43.0866 322.631 45.4288 324.399 47.3824L333.297 39.3315C333.766 39.8499 334.012 40.3824 334.132 40.7737C334.245 41.1428 334.245 41.3769 334.245 41.3892H322.245ZM324.498 47.4894C326.216 49.2982 328.432 49.9917 330.467 49.9917V37.9917C330.754 37.9917 331.21 38.0374 331.745 38.2472C332.298 38.4643 332.799 38.8041 333.198 39.2244L324.498 47.4894ZM330.467 49.9917C334.542 49.9917 337.567 47.7206 339.39 44.7483L329.161 38.4744C329.044 38.6651 329.092 38.509 329.413 38.3086C329.573 38.2088 329.762 38.1226 329.968 38.0649C330.173 38.0077 330.346 37.9917 330.467 37.9917V49.9917ZM339.408 44.7181C340.908 42.2393 341.891 39.0392 342.598 35.574L330.84 33.176C330.235 36.143 329.588 37.7672 329.142 38.5045L339.408 44.7181ZM342.6 35.5663L346.091 18.3324L334.33 15.9498L330.838 33.1837L342.6 35.5663ZM340.21 23.1411H352.493V11.1411H340.21V23.1411Z" fill="white"/>
<path d="M46.5359 20.6006C46.5359 25.9326 44.7162 30.1221 41.0769 33.1689C37.4587 36.1947 32.497 37.7075 26.1917 37.7075H23.4622L20.2883 53.1006H7.87866L17.6858 6.69922H29.5242C35.0043 6.69922 39.2043 7.90527 42.1243 10.3174C45.0653 12.7083 46.5359 16.1361 46.5359 20.6006ZM25.6838 27.5513H27.6833C29.6088 27.5513 31.164 26.9377 32.3489 25.7104C33.5338 24.4621 34.1262 22.8857 34.1262 20.9814C34.1262 19.7331 33.7454 18.728 32.9836 17.9663C32.2219 17.2046 31.1746 16.8237 29.8416 16.8237H27.969L25.6838 27.5513ZM63.8333 53.7354C59.4111 53.7354 55.9939 52.5399 53.5818 50.1489C51.1908 47.758 49.9954 44.3408 49.9954 39.8975C49.9954 35.4541 50.8311 31.4445 52.5027 27.8687C54.1954 24.2716 56.5652 21.4787 59.6121 19.4897C62.6589 17.5008 66.2136 16.5063 70.2761 16.5063C74.6983 16.5063 78.1049 17.7018 80.4958 20.0928C82.908 22.4837 84.114 25.9009 84.114 30.3442C84.114 34.7876 83.2677 38.8078 81.575 42.4048C79.9034 45.9806 77.5442 48.763 74.4973 50.752C71.4504 52.7409 67.8958 53.7354 63.8333 53.7354ZM68.8479 25.7422C67.1129 25.7422 65.6212 27.2233 64.3728 30.1855C63.1456 33.1266 62.532 36.5015 62.532 40.3101C62.532 43.1242 63.4207 44.5312 65.198 44.5312C66.9119 44.5312 68.4036 43.0607 69.6731 40.1196C70.9426 37.1785 71.5774 33.7931 71.5774 29.9634C71.5774 28.5669 71.3341 27.5195 70.8474 26.8213C70.3608 26.1019 69.6943 25.7422 68.8479 25.7422ZM103.252 30.5347C105.707 30.5347 107.452 30.3125 108.489 29.8682C109.547 29.4238 110.076 28.7573 110.076 27.8687C110.076 27.0011 109.78 26.3875 109.187 26.0278C108.595 25.6681 107.59 25.4883 106.172 25.4883C104.628 25.4883 102.818 25.721 100.745 26.1865C98.6925 26.652 96.7987 27.2868 95.0637 28.0908L92.3977 19.2358C97.7086 17.4162 102.892 16.5063 107.949 16.5063C112.689 16.5063 116.265 17.2892 118.677 18.855C121.089 20.3996 122.295 22.6742 122.295 25.6787C122.295 27.8369 121.65 29.6143 120.359 31.0107C119.09 32.4072 117.069 33.5286 114.297 34.375V34.6289C116.286 35.1579 117.767 36.0465 118.74 37.2949C119.735 38.5433 120.232 40.0244 120.232 41.7383C120.232 45.5892 118.592 48.5514 115.313 50.625C112.033 52.6986 107.389 53.7354 101.38 53.7354C98.3962 53.7354 95.7514 53.4814 93.4451 52.9736C91.1599 52.4658 89.2979 51.8099 87.8591 51.0059V41.6748C92.0274 43.5791 96.2486 44.5312 100.523 44.5312C105.326 44.5312 107.727 43.5262 107.727 41.5161C107.727 40.3524 107.167 39.5378 106.045 39.0723C104.945 38.5856 103.305 38.3423 101.126 38.3423H96.6824L98.3962 30.5347H103.252ZM141.751 30.8838C143.168 30.4395 144.808 30.2173 146.67 30.2173C150.267 30.2173 153.134 31.1483 155.271 33.0103C157.429 34.8722 158.509 37.3055 158.509 40.3101C158.509 44.6899 157.07 48.0225 154.192 50.3076C151.315 52.5928 146.945 53.7354 141.084 53.7354C136.726 53.7354 133.34 52.8784 130.928 51.1646C128.516 49.4507 127.31 46.9328 127.31 43.6108C127.31 41.7277 127.595 39.6012 128.167 37.2314L132.515 17.1411H144.798L141.751 30.8838ZM143.242 38.5327C141.973 38.5327 140.883 38.7126 139.973 39.0723C139.508 41.04 139.275 42.3836 139.275 43.103C139.275 43.8436 139.561 44.4149 140.132 44.8169C140.725 45.2189 141.539 45.4199 142.576 45.4199C143.592 45.4199 144.427 45.1237 145.083 44.5312C145.76 43.9388 146.099 43.0713 146.099 41.9287C146.099 40.9131 145.834 40.0985 145.305 39.4849C144.798 38.8501 144.11 38.5327 143.242 38.5327ZM174.124 53.1006H161.809L169.427 17.1411H181.773L174.124 53.1006ZM187.866 19.4897C189.58 18.5376 191.59 17.8076 193.897 17.2998C196.224 16.7708 198.52 16.5063 200.784 16.5063C204.931 16.5063 208.168 17.395 210.496 19.1724C212.823 20.9285 213.987 23.3936 213.987 26.5674C213.987 29.0641 213.553 31.1165 212.686 32.7246C211.839 34.3115 210.422 35.708 208.433 36.9141C206.465 38.1201 203.535 39.3368 199.641 40.564C197.864 41.1141 196.785 41.5479 196.404 41.8652C196.044 42.1826 195.865 42.6164 195.865 43.1665C195.865 43.6532 196.087 44.034 196.531 44.3091C196.997 44.5841 197.853 44.7217 199.102 44.7217C200.329 44.7217 201.927 44.4572 203.894 43.9282C205.862 43.3993 207.798 42.6904 209.702 41.8018V50.8154C207.756 51.8099 205.703 52.5505 203.545 53.0371C201.408 53.5026 198.975 53.7354 196.245 53.7354C192.077 53.7354 188.882 52.7938 186.66 50.9106C184.439 49.0063 183.328 46.3086 183.328 42.8174C183.328 39.7705 184.344 37.2738 186.375 35.3271C188.427 33.3594 191.717 31.7196 196.245 30.4077C197.642 30.0269 198.732 29.6566 199.514 29.2969C200.297 28.9372 200.847 28.5775 201.165 28.2178C201.482 27.8581 201.641 27.3291 201.641 26.6309C201.641 25.4671 200.71 24.8853 198.848 24.8853C196.52 24.8853 193.833 25.7104 190.786 27.3608L187.866 19.4897ZM236.077 53.7354C233.051 53.7354 230.607 52.2013 228.745 49.1333H228.491C228.238 52.6457 227.645 56.5706 226.714 60.9082L225.095 68.7158H212.813L223.731 17.1411H233.538L233.157 21.1719H233.411C235.442 18.0615 238.172 16.5063 241.599 16.5063C244.9 16.5063 247.492 17.6912 249.375 20.061C251.258 22.4097 252.2 25.647 252.2 29.7729C252.2 34.0682 251.459 38.1201 249.978 41.9287C248.497 45.7161 246.529 48.6361 244.075 50.6885C241.642 52.7197 238.976 53.7354 236.077 53.7354ZM236.934 26.377C235.876 26.377 234.871 26.98 233.919 28.186C232.967 29.3921 232.205 31.0213 231.634 33.0737C231.083 35.1261 230.808 37.2103 230.808 39.3262C230.808 40.7015 231.052 41.8018 231.538 42.627C232.025 43.4521 232.713 43.8647 233.601 43.8647C234.617 43.8647 235.59 43.2617 236.521 42.0557C237.452 40.8496 238.203 39.231 238.775 37.1997C239.367 35.1685 239.663 33.0843 239.663 30.9473C239.663 27.9004 238.753 26.377 236.934 26.377ZM272.005 30.8838C273.422 30.4395 275.062 30.2173 276.924 30.2173C280.521 30.2173 283.388 31.1483 285.525 33.0103C287.683 34.8722 288.762 37.3055 288.762 40.3101C288.762 44.6899 287.324 48.0225 284.446 50.3076C281.568 52.5928 277.199 53.7354 271.338 53.7354C266.979 53.7354 263.594 52.8784 261.182 51.1646C258.77 49.4507 257.564 46.9328 257.564 43.6108C257.564 41.7277 257.849 39.6012 258.421 37.2314L262.769 17.1411H275.052L272.005 30.8838ZM273.496 38.5327C272.227 38.5327 271.137 38.7126 270.227 39.0723C269.762 41.04 269.529 42.3836 269.529 43.103C269.529 43.8436 269.815 44.4149 270.386 44.8169C270.978 45.2189 271.793 45.4199 272.83 45.4199C273.845 45.4199 274.681 45.1237 275.337 44.5312C276.014 43.9388 276.353 43.0713 276.353 41.9287C276.353 40.9131 276.088 40.0985 275.559 39.4849C275.052 38.8501 274.364 38.5327 273.496 38.5327ZM304.378 53.1006H292.063L299.68 17.1411H312.027L304.378 53.1006ZM352.493 17.1411L348.335 37.168C348.039 38.9453 347.891 40.2254 347.891 41.0083C347.891 42.9972 348.653 43.9917 350.176 43.9917C351.594 43.9917 352.779 43.2406 353.731 41.7383C354.683 40.2148 355.508 37.8451 356.206 34.6289L359.983 17.1411H372.266L364.649 53.1006H354.842L355.349 47.1973H355.095C353.847 49.5036 352.429 51.1751 350.843 52.2119C349.277 53.2275 347.235 53.7354 344.717 53.7354C342.241 53.7354 340.327 53.1746 338.972 52.0532C337.618 50.9318 336.666 49.3132 336.116 47.1973H335.862C334.487 49.4401 332.91 51.0905 331.133 52.1484C329.356 53.2064 327.293 53.7354 324.944 53.7354C321.982 53.7354 319.718 52.8467 318.152 51.0693C316.608 49.292 315.835 46.6577 315.835 43.1665C315.835 41.1564 316.079 38.9876 316.565 36.6602L320.532 17.1411H332.815L328.721 37.168C328.404 38.4375 328.245 39.8446 328.245 41.3892C328.245 42.2567 328.446 42.9126 328.848 43.3569C329.25 43.7801 329.789 43.9917 330.467 43.9917C332.032 43.9917 333.302 43.1982 334.275 41.6113C335.248 40.0033 336.063 37.5911 336.719 34.375L340.21 17.1411H352.493Z" fill="#F07F18"/>
</svg>
