<svg width="290" height="51" viewBox="0 0 290 51" fill="none" xmlns="http://www.w3.org/2000/svg">
<path d="M28.662 22.8635L32.511 27.4662L32.5136 27.4641L28.662 22.8635ZM17.8221 25.6565V19.6565H12.933L11.9458 24.4449L17.8221 25.6565ZM15.869 35.1292V41.1292H20.7581L21.7454 36.3408L15.869 35.1292ZM8.2323 35.1292L2.36198 33.8884L0.831626 41.1292H8.2323V35.1292ZM14.2675 6.57446V0.574463H9.40303L8.39714 5.33375L14.2675 6.57446ZM29.3065 8.80103L25.4852 13.4268L25.5034 13.4418L25.5217 13.4567L29.3065 8.80103ZM19.1893 19.4065L13.321 18.1564L11.7766 25.4065H19.1893V19.4065ZM23.2909 18.2737L27.6073 22.4412L27.6251 22.4228L27.6427 22.4042L23.2909 18.2737ZM20.5956 12.8049V6.80493H15.7391L14.7272 11.5549L20.5956 12.8049ZM26.0214 15.1292C26.0214 16.881 25.51 17.6773 24.8104 18.263L32.5136 27.4641C36.2932 24.2998 38.0214 19.9398 38.0214 15.1292H26.0214ZM24.8129 18.2608C23.9825 18.9553 22.4517 19.6565 19.5018 19.6565V31.6565C24.3124 31.6565 28.8884 30.4957 32.511 27.4662L24.8129 18.2608ZM19.5018 19.6565H17.8221V31.6565H19.5018V19.6565ZM11.9458 24.4449L9.99263 33.9175L21.7454 36.3408L23.6985 26.8681L11.9458 24.4449ZM15.869 29.1292H8.2323V41.1292H15.869V29.1292ZM14.1026 36.3699L20.1378 7.81518L8.39714 5.33375L2.36198 33.8884L14.1026 36.3699ZM14.2675 12.5745H21.5526V0.574463H14.2675V12.5745ZM21.5526 12.5745C24.1383 12.5745 25.1541 13.1532 25.4852 13.4268L33.1278 4.17525C29.8652 1.48005 25.7117 0.574463 21.5526 0.574463V12.5745ZM25.5217 13.4567C25.674 13.5805 26.0214 13.8299 26.0214 15.1292H38.0214C38.0214 10.9336 36.5588 6.96422 33.0913 4.14537L25.5217 13.4567ZM19.1893 25.4065H20.4198V13.4065H19.1893V25.4065ZM20.4198 25.4065C23.0027 25.4065 25.5972 24.5231 27.6073 22.4412L18.9745 14.1061C19.1931 13.8797 19.4884 13.6745 19.8241 13.542C20.1448 13.4155 20.3714 13.4065 20.4198 13.4065V25.4065ZM27.6427 22.4042C29.5466 20.3984 30.3846 17.8946 30.3846 15.3635H18.3846C18.3846 15.322 18.3925 15.1312 18.4948 14.8591C18.6011 14.5763 18.7638 14.3278 18.9391 14.1431L27.6427 22.4042ZM30.3846 15.3635C30.3846 13.2775 29.6978 11.0391 27.9242 9.26542L19.4389 17.7507C19.074 17.3858 18.7828 16.9366 18.5982 16.4496C18.42 15.9794 18.3846 15.5904 18.3846 15.3635H30.3846ZM27.9242 9.26542C26.0756 7.41683 23.7591 6.80493 21.7479 6.80493V18.8049C21.5922 18.8049 21.2458 18.783 20.7961 18.6195C20.3237 18.4477 19.8461 18.1579 19.4389 17.7507L27.9242 9.26542ZM21.7479 6.80493H20.5956V18.8049H21.7479V6.80493ZM14.7272 11.5549L13.321 18.1564L25.0577 20.6566L26.4639 14.055L14.7272 11.5549ZM36.455 33.2151L32.1945 37.4398L32.2034 37.4488L32.2123 37.4577L36.455 33.2151ZM35.7714 19.3479L30.3922 16.69L30.389 16.6964L30.3858 16.7029L35.7714 19.3479ZM40.244 14.3284L43.331 19.4733L43.3413 19.4671L40.244 14.3284ZM51.7284 24.7971L55.1222 29.7451L55.1289 29.7405L51.7284 24.7971ZM41.7479 26.887V20.887H35.7479V26.887H41.7479ZM47.9784 29.6409L49.7163 35.3837L49.7508 35.3732L49.7852 35.3624L47.9784 29.6409ZM51.3573 28.176H57.3573V18.2426L48.5651 22.8653L51.3573 28.176ZM51.3573 33.5276L54.0787 38.8749L57.3573 37.2063V33.5276H51.3573ZM47.2753 35.0901L48.6024 40.9415L48.631 40.935L48.6596 40.9282L47.2753 35.0901ZM43.7596 19.094L48.5179 22.7489L48.5306 22.7324L48.5432 22.7158L43.7596 19.094ZM42.5096 22.1604L36.556 21.4162L35.7129 28.1604H42.5096V22.1604ZM46.4159 21.3596L49.7254 26.3643L49.7533 26.3459L49.781 26.3271L46.4159 21.3596ZM42.9003 29.5198C41.2791 29.5198 40.8251 29.1 40.6976 28.9724L32.2123 37.4577C35.1577 40.4031 39.0006 41.5198 42.9003 41.5198V29.5198ZM40.7155 28.9904C40.5641 28.8378 40.1503 28.3661 40.1503 26.7698H28.1503C28.1503 30.6683 29.2729 34.4934 32.1945 37.4398L40.7155 28.9904ZM40.1503 26.7698C40.1503 24.8278 40.5269 23.2756 41.1569 21.9929L30.3858 16.7029C28.8543 19.8212 28.1503 23.217 28.1503 26.7698H40.1503ZM41.1505 22.0058C41.7984 20.6947 42.5464 19.9441 43.331 19.4733L37.157 9.18341C34.1656 10.9783 31.9319 13.574 30.3922 16.69L41.1505 22.0058ZM43.3413 19.4671C44.1984 18.9505 45.2958 18.6096 46.826 18.6096V6.60962C43.3824 6.60962 40.0917 7.41455 37.1467 9.18963L43.3413 19.4671ZM46.826 18.6096C48.4434 18.6096 48.9193 18.976 48.9494 18.9997L56.3824 9.5789C53.5739 7.36305 50.1566 6.60962 46.826 6.60962V18.6096ZM48.9494 18.9997C48.9855 19.0281 48.9773 19.0274 48.9474 18.9906C48.9161 18.9522 48.8781 18.8956 48.845 18.826C48.812 18.7568 48.7971 18.7025 48.7918 18.6774C48.7869 18.6546 48.7948 18.6783 48.7948 18.762H60.7948C60.7948 15.1271 59.2933 11.8756 56.3824 9.5789L48.9494 18.9997ZM48.7948 18.762C48.7948 19.2772 48.6987 19.4772 48.6791 19.5158C48.6657 19.5421 48.6089 19.6605 48.3279 19.8538L55.1289 29.7405C58.9035 27.1439 60.7948 23.2259 60.7948 18.762H48.7948ZM48.3346 19.8492C47.7211 20.27 46.176 20.887 42.9003 20.887V32.887C47.3329 32.887 51.6732 32.1107 55.1222 29.7451L48.3346 19.8492ZM42.9003 20.887H41.7479V32.887H42.9003V20.887ZM35.7479 26.887V27.1995H47.7479V26.887H35.7479ZM35.7479 27.1995C35.7479 29.2559 36.3459 31.8518 38.5289 33.8218C40.5949 35.6862 43.1019 36.0901 44.951 36.0901V24.0901C44.6647 24.0901 45.5702 24.0122 46.5685 24.9131C47.6838 25.9196 47.7479 27.0701 47.7479 27.1995H35.7479ZM44.951 36.0901C46.5715 36.0901 48.1661 35.8528 49.7163 35.3837L46.2404 23.8981C45.8115 24.0279 45.3878 24.0901 44.951 24.0901V36.0901ZM49.7852 35.3624C51.2143 34.9111 52.6791 34.2598 54.1495 33.4867L48.5651 22.8653C47.5095 23.4203 46.7217 23.7457 46.1716 23.9194L49.7852 35.3624ZM45.3573 28.176V33.5276H57.3573V28.176H45.3573ZM48.6359 28.1803C47.4975 28.7596 46.5886 29.0865 45.891 29.252L48.6596 40.9282C50.488 40.4947 52.3004 39.78 54.0787 38.8749L48.6359 28.1803ZM45.9482 29.2387C45.221 29.4036 44.2237 29.5198 42.9003 29.5198V41.5198C44.8842 41.5198 46.8035 41.3495 48.6024 40.9415L45.9482 29.2387ZM45.9862 11.7268C42.5878 11.7268 40.2762 13.7551 38.9761 15.4722L48.5432 22.7158C48.5712 22.6788 48.4028 22.918 47.9734 23.1816C47.4943 23.4759 46.8031 23.7268 45.9862 23.7268V11.7268ZM39.0013 15.4391C37.6479 17.2011 36.8289 19.2325 36.556 21.4162L48.4633 22.9046C48.4727 22.8297 48.4849 22.8011 48.4857 22.7993C48.4869 22.7963 48.4886 22.7926 48.4919 22.7868C48.4953 22.7809 48.503 22.7684 48.5179 22.7489L39.0013 15.4391ZM42.5096 28.1604H43.076V16.1604H42.5096V28.1604ZM43.076 28.1604C45.1531 28.1604 47.5782 27.7843 49.7254 26.3643L43.1063 16.3549C43.3822 16.1725 43.5743 16.1261 43.5765 16.1256C43.578 16.1252 43.5399 16.1344 43.4542 16.1434C43.3687 16.1524 43.2442 16.1604 43.076 16.1604V28.1604ZM49.781 26.3271C52.0399 24.7969 53.6268 22.3128 53.6268 19.2112H41.6268C41.6268 18.7037 41.7534 18.0762 42.0972 17.4663C42.4286 16.8783 42.8279 16.5431 43.0508 16.3921L49.781 26.3271ZM53.6268 19.2112C53.6268 17.426 53.0207 15.5998 51.6758 14.1205L42.7966 22.1925C42.427 21.786 42.1133 21.2874 41.9027 20.7189C41.6948 20.1575 41.6268 19.6352 41.6268 19.2112H53.6268ZM51.6758 14.1205C49.8249 12.0844 47.4314 11.7268 45.9862 11.7268V23.7268C45.6868 23.7268 44.1267 23.6557 42.7966 22.1925L51.6758 14.1205ZM58.955 14.4456L56.0411 9.20061L51.5378 11.7024L53.3296 16.5324L58.955 14.4456ZM62.6659 13.0979L63.9561 18.9575L63.9759 18.9532L63.9956 18.9487L62.6659 13.0979ZM72.8807 14.2502L69.2393 19.0189L69.253 19.0294L69.2668 19.0398L72.8807 14.2502ZM74.2284 22.5901L68.9478 19.7413L68.941 19.7539L68.9343 19.7666L74.2284 22.5901ZM71.6112 25.1682L68.5002 20.0378L68.488 20.0452L68.4758 20.0526L71.6112 25.1682ZM66.201 27.4143L67.9752 33.146L67.99 33.1414L68.0049 33.1367L66.201 27.4143ZM64.2089 28.2151L60.3678 23.6058L60.3027 23.66L60.2391 23.7161L64.2089 28.2151ZM64.287 29.719L61.1289 34.8206L61.1814 34.8531L61.2346 34.8846L64.287 29.719ZM72.3925 28.176H78.3925V18.7548L69.8551 22.7389L72.3925 28.176ZM72.3925 33.7229L75.1221 39.066L78.3925 37.3953V33.7229H72.3925ZM68.6034 35.0901L69.8804 40.9526L69.9018 40.948L69.9232 40.9431L68.6034 35.0901ZM58.2128 33.7815L54.308 38.337L54.3206 38.3478L54.3332 38.3585L58.2128 33.7815ZM58.037 24.1917L62.1884 28.5236L62.1894 28.5227L58.037 24.1917ZM64.1112 21.1643L62.5325 15.3757L62.4869 15.3882L62.4416 15.4013L64.1112 21.1643ZM66.1229 20.4807L68.6279 25.9328L66.1229 20.4807ZM60.7518 19.2893L55.1264 21.3761L57.5309 27.8577L63.6095 24.5651L60.7518 19.2893ZM61.8688 19.6905C62.3235 19.4379 62.9929 19.1696 63.9561 18.9575L61.3757 7.23826C59.5003 7.65119 57.6958 8.28136 56.0411 9.20061L61.8688 19.6905ZM63.9956 18.9487C65.0152 18.717 65.9819 18.6096 66.9042 18.6096V6.60962C65.04 6.60962 63.1812 6.82778 61.3362 7.2471L63.9956 18.9487ZM66.9042 18.6096C68.6735 18.6096 69.2096 18.9962 69.2393 19.0189L76.5222 9.48164C73.6873 7.31681 70.239 6.60962 66.9042 6.60962V18.6096ZM69.2668 19.0398C69.2758 19.0466 69.2449 19.0243 69.1971 18.9666C69.1482 18.9074 69.102 18.8356 69.0663 18.76C69.0312 18.6857 69.02 18.6367 69.0187 18.6307C69.018 18.6272 69.0292 18.6791 69.0292 18.801H81.0292C81.0292 15.1582 79.577 11.7865 76.4947 9.46071L69.2668 19.0398ZM69.0292 18.801C69.0292 19.6903 68.8682 19.8889 68.9478 19.7413L79.509 25.4388C80.6563 23.3122 81.0292 20.9846 81.0292 18.801H69.0292ZM68.9343 19.7666C69.0489 19.5516 69.0672 19.6939 68.5002 20.0378L74.7222 30.2987C76.6031 29.1581 78.3662 27.5817 79.5225 25.4136L68.9343 19.7666ZM68.4758 20.0526C67.8841 20.4153 66.6246 20.9898 64.3972 21.6919L68.0049 33.1367C70.5692 32.3284 72.9164 31.4055 74.7466 30.2838L68.4758 20.0526ZM64.4269 21.6826C63.8041 21.8754 63.1914 22.0817 62.6449 22.3013C62.3025 22.439 61.2806 22.8451 60.3678 23.6058L68.05 32.8244C67.9279 32.9261 67.8182 33.0084 67.7282 33.0721C67.6377 33.1363 67.5577 33.1885 67.4925 33.2292C67.3653 33.3086 67.2659 33.3618 67.2102 33.3905C67.152 33.4204 67.1144 33.4374 67.104 33.4421C67.0926 33.4472 67.097 33.4449 67.1204 33.4355C67.17 33.4156 67.2646 33.3796 67.4153 33.3277C67.5636 33.2766 67.7488 33.2161 67.9752 33.146L64.4269 21.6826ZM60.2391 23.7161C58.5309 25.2233 57.8768 27.2358 57.8768 29.0159H69.8768C69.8768 29.5019 69.7962 30.151 69.5023 30.8599C69.2 31.5888 68.7376 32.2209 68.1786 32.7141L60.2391 23.7161ZM57.8768 29.0159C57.8768 31.5716 59.2458 33.6549 61.1289 34.8206L67.4451 24.6174C67.9888 24.954 68.6517 25.5182 69.162 26.393C69.6832 27.2865 69.8768 28.2165 69.8768 29.0159H57.8768ZM61.2346 34.8846C62.2972 35.5124 63.3356 35.7356 63.9465 35.8336C64.628 35.943 65.2918 35.9729 65.869 35.9729V23.9729C65.678 23.9729 65.694 23.9605 65.8481 23.9852C65.932 23.9987 66.1038 24.0306 66.334 24.1024C66.5576 24.1721 66.9192 24.3052 67.3394 24.5534L61.2346 34.8846ZM65.869 35.9729C67.3818 35.9729 68.944 35.6638 70.3758 35.2789L67.2606 23.6903C66.7994 23.8143 66.4477 23.8892 66.1927 23.9314C65.9292 23.975 65.8337 23.9729 65.869 23.9729V35.9729ZM70.3758 35.2789C71.9334 34.8602 73.4522 34.3027 74.9298 33.6131L69.8551 22.7389C68.989 23.1431 68.1249 23.458 67.2606 23.6903L70.3758 35.2789ZM66.3925 28.176V33.7229H78.3925V28.176H66.3925ZM69.6628 28.3798C68.9171 28.7607 68.1283 29.0466 67.2836 29.237L69.9232 40.9431C71.7348 40.5346 73.472 39.909 75.1221 39.066L69.6628 28.3798ZM67.3264 29.2276C66.519 29.4034 65.4623 29.5198 64.1112 29.5198V41.5198C66.1194 41.5198 68.0576 41.3497 69.8804 40.9526L67.3264 29.2276ZM64.1112 29.5198C62.3648 29.5198 61.991 29.1186 62.0923 29.2045L54.3332 38.3585C57.1689 40.7621 60.7274 41.5198 64.1112 41.5198V29.5198ZM62.1175 29.226C62.1229 29.2305 62.1469 29.2529 62.1752 29.292C62.2036 29.3311 62.2185 29.3626 62.2228 29.373C62.2319 29.3951 62.162 29.2424 62.162 28.801H50.162C50.162 32.329 51.3523 35.8036 54.308 38.337L62.1175 29.226ZM62.162 28.801C62.162 28.6659 62.1732 28.5817 62.1809 28.5395C62.1884 28.4987 62.1938 28.4901 62.1885 28.5032C62.1829 28.5171 62.1739 28.5338 62.165 28.5467C62.1566 28.5591 62.1599 28.5509 62.1884 28.5236L53.8856 19.8597C51.3501 22.2896 50.162 25.4412 50.162 28.801H62.162ZM62.1894 28.5227C62.4359 28.2863 63.3851 27.6214 65.7809 26.9273L62.4416 15.4013C59.2644 16.3218 56.1641 17.6752 53.8846 19.8607L62.1894 28.5227ZM65.6899 26.9529C66.6843 26.6817 67.714 26.3527 68.6279 25.9328L63.6179 15.0287C63.6205 15.0275 63.5986 15.0376 63.5469 15.0577C63.4959 15.0776 63.424 15.1041 63.3282 15.1367C63.1341 15.2026 62.8724 15.283 62.5325 15.3757L65.6899 26.9529ZM68.6279 25.9328C69.3601 25.5964 70.6092 24.9519 71.6376 23.7864L62.6395 15.8469C63.002 15.4362 63.3272 15.2102 63.4547 15.1269C63.5965 15.0341 63.6668 15.0062 63.6179 15.0287L68.6279 25.9328ZM71.6376 23.7864C73.1594 22.0616 73.4315 20.0778 73.4315 18.8401H61.4315C61.4315 18.4618 61.5083 17.129 62.6395 15.8469L71.6376 23.7864ZM73.4315 18.8401C73.4315 16.5631 72.3459 14.299 70.1818 12.9464C68.4878 11.8877 66.7165 11.7659 65.7128 11.7659V23.7659C65.7051 23.7659 65.529 23.7669 65.241 23.7069C64.9593 23.6482 64.4288 23.5018 63.8218 23.1224C63.1745 22.7179 62.5055 22.0853 62.03 21.1936C61.5627 20.3175 61.4315 19.472 61.4315 18.8401H73.4315ZM65.7128 11.7659C62.9125 11.7659 60.2505 12.7372 57.8941 14.0136L63.6095 24.5651C65.0032 23.8102 65.6485 23.7659 65.7128 23.7659V11.7659ZM66.3772 17.2025L64.5804 12.3587L53.3296 16.5324L55.1264 21.3761L66.3772 17.2025ZM85.8495 29.0745L81.7066 33.4146L81.7547 33.4605L81.8039 33.5054L85.8495 29.0745ZM88.994 27.9612L83.8952 24.7986L83.8896 24.8076L83.8841 24.8166L88.994 27.9612ZM90.5175 23.762L96.3855 25.0132L96.3872 25.0056L96.3888 24.998L90.5175 23.762ZM92.7831 13.0002V7.00024H87.9147L86.9118 11.7642L92.7831 13.0002ZM100.342 13.0002L106.212 14.2387L107.739 7.00024H100.342V13.0002ZM95.6737 35.1292V41.1292H100.54L101.545 36.3676L95.6737 35.1292ZM89.619 35.1292L83.6392 34.6371L83.1051 41.1292H89.619V35.1292ZM89.8729 32.0432L95.8527 32.5352L96.3869 26.0432H89.8729V32.0432ZM89.7167 32.0432V26.0432H86.2624L84.5279 29.0304L89.7167 32.0432ZM87.1971 34.6995L90.1588 39.9176L90.1701 39.9111L90.1814 39.9046L87.1971 34.6995ZM79.326 33.8596L74.9074 37.9186L74.9192 37.9315L74.9311 37.9443L79.326 33.8596ZM78.2714 24.7776L72.4002 23.541L72.3958 23.5618L72.3916 23.5825L78.2714 24.7776ZM80.7518 13.0002V7.00024H75.8839L74.8806 11.7637L80.7518 13.0002ZM88.3104 13.0002L94.1834 14.2282L95.6946 7.00024H88.3104V13.0002ZM85.7909 25.051L91.636 26.4054L91.6507 26.3423L91.6639 26.2789L85.7909 25.051ZM79.4198 27.8049C79.4198 29.278 79.7885 31.5837 81.7066 33.4146L89.9923 24.7343C91.3375 26.0184 91.4198 27.4777 91.4198 27.8049H79.4198ZM81.8039 33.5054C83.2032 34.783 84.9957 35.4846 86.9042 35.4846V23.4846C87.3937 23.4846 87.9475 23.5704 88.5124 23.7901C89.0769 24.0096 89.5395 24.3189 89.8951 24.6436L81.8039 33.5054ZM86.9042 35.4846C90.7375 35.4846 93.0257 32.8579 94.104 31.1058L83.8841 24.8166C83.8345 24.8971 83.9936 24.6014 84.4684 24.2553C85.0155 23.8565 85.8648 23.4846 86.9042 23.4846V35.4846ZM94.0929 31.1238C95.229 29.292 95.9281 27.1587 96.3855 25.0132L84.6494 22.5107C84.3517 23.9069 84.0351 24.573 83.8952 24.7986L94.0929 31.1238ZM96.3888 24.998L98.6544 14.2363L86.9118 11.7642L84.6462 22.5259L96.3888 24.998ZM92.7831 19.0002H100.342V7.00024H92.7831V19.0002ZM94.4709 11.7618L89.8029 33.8907L101.545 36.3676L106.212 14.2387L94.4709 11.7618ZM95.6737 29.1292H89.619V41.1292H95.6737V29.1292ZM95.5988 35.6212L95.8527 32.5352L83.8931 31.5512L83.6392 34.6371L95.5988 35.6212ZM89.8729 26.0432H89.7167V38.0432H89.8729V26.0432ZM84.5279 29.0304C84.2264 29.5497 84.0767 29.5724 84.2128 29.4943L90.1814 39.9046C92.2707 38.7068 93.8007 36.9586 94.9054 35.056L84.5279 29.0304ZM84.2355 29.4813C84.3944 29.3912 84.2895 29.5198 83.6229 29.5198V41.5198C85.7949 41.5198 88.0728 41.1015 90.1588 39.9176L84.2355 29.4813ZM83.6229 29.5198C83.3032 29.5198 83.24 29.4716 83.3342 29.5079C83.3814 29.5262 83.4506 29.5592 83.5287 29.6119C83.6071 29.6648 83.6723 29.7226 83.721 29.7749L74.9311 37.9443C77.3339 40.5296 80.5063 41.5198 83.6229 41.5198V29.5198ZM83.7447 29.8006C83.7841 29.8435 83.8163 29.8885 83.8392 29.9279C83.8615 29.9663 83.865 29.9822 83.8585 29.9628C83.8441 29.9198 83.7831 29.7081 83.7831 29.2502H71.7831C71.7831 32.2647 72.5978 35.4044 74.9074 37.9186L83.7447 29.8006ZM83.7831 29.2502C83.7831 28.3367 83.8914 27.2505 84.1511 25.9727L72.3916 23.5825C72.0003 25.5078 71.7831 27.4034 71.7831 29.2502H83.7831ZM84.1426 26.0141L86.623 14.2368L74.8806 11.7637L72.4002 23.541L84.1426 26.0141ZM80.7518 19.0002H88.3104V7.00024H80.7518V19.0002ZM82.4374 11.7723L79.9179 23.8231L91.6639 26.2789L94.1834 14.2282L82.4374 11.7723ZM79.9457 23.6967C79.6352 25.037 79.4198 26.4332 79.4198 27.8049H91.4198C91.4198 27.6402 91.4518 27.2005 91.636 26.4054L79.9457 23.6967ZM104.599 33.176L100.178 37.232L100.196 37.2511L100.213 37.2699L104.599 33.176ZM103.916 19.387L98.4847 16.837L98.4813 16.8442L98.4779 16.8515L103.916 19.387ZM108.115 14.4065L111.418 19.4155L111.427 19.4098L108.115 14.4065ZM121.435 14.1721L126.95 16.5356L129.243 11.1862L123.966 8.73179L121.435 14.1721ZM119.033 19.7776L116.566 25.2468L122.139 27.7612L124.548 22.1411L119.033 19.7776ZM110.693 22.3557L116.342 24.3775L116.346 24.3682L116.349 24.3588L110.693 22.3557ZM110.615 28.6252L105.694 32.0583L105.713 32.0856L105.733 32.1127L110.615 28.6252ZM115.185 28.9963L113.263 23.3127L113.25 23.317L113.237 23.3214L115.185 28.9963ZM117.998 27.7659H123.998V17.8277L115.203 22.4564L117.998 27.7659ZM117.998 33.762L120.889 39.0193L123.998 37.3096V33.762H117.998ZM114.697 35.0706L113.196 29.2614L113.188 29.2635L113.18 29.2656L114.697 35.0706ZM110.674 29.5198C109.365 29.5198 109.073 29.1758 108.986 29.0821L100.213 37.2699C103.042 40.3012 106.8 41.5198 110.674 41.5198V29.5198ZM109.021 29.12C108.899 28.987 108.432 28.4001 108.432 26.4963H96.4315C96.4315 30.3478 97.4095 34.214 100.178 37.232L109.021 29.12ZM108.432 26.4963C108.432 24.6515 108.776 23.162 109.354 21.9224L98.4779 16.8515C97.0767 19.8568 96.4315 23.1068 96.4315 26.4963H108.432ZM109.347 21.937C109.927 20.7022 110.631 19.9346 111.418 19.4155L104.812 9.3975C102.006 11.2482 99.9102 13.8009 98.4847 16.837L109.347 21.937ZM111.427 19.4098C112.198 18.8992 113.084 18.6096 114.267 18.6096V6.60962C110.867 6.60962 107.652 7.518 104.804 9.40314L111.427 19.4098ZM114.267 18.6096C115.958 18.6096 117.481 18.9499 118.905 19.6124L123.966 8.73179C120.911 7.311 117.656 6.60962 114.267 6.60962V18.6096ZM115.921 11.8086L113.518 17.4141L124.548 22.1411L126.95 16.5356L115.921 11.8086ZM121.5 14.3084C119.397 13.3597 117.041 12.6057 114.639 12.6057V24.6057C114.599 24.6057 114.735 24.6015 115.09 24.6961C115.439 24.7893 115.927 24.9584 116.566 25.2468L121.5 14.3084ZM114.639 12.6057C112.116 12.6057 109.978 13.6352 108.365 15.096L116.42 23.9904C116.333 24.0696 116.124 24.2347 115.783 24.3771C115.429 24.5249 115.032 24.6057 114.639 24.6057V12.6057ZM108.365 15.096C106.692 16.6113 105.68 18.5389 105.037 20.3526L116.349 24.3588C116.462 24.0399 116.551 23.8749 116.586 23.8178C116.619 23.7631 116.576 23.8491 116.42 23.9904L108.365 15.096ZM105.044 20.3339C104.392 22.1571 104.029 24.0575 104.029 26.0081H116.029C116.029 25.5627 116.109 25.0283 116.342 24.3775L105.044 20.3339ZM104.029 26.0081C104.029 27.6196 104.251 29.9899 105.694 32.0583L115.536 25.1922C115.902 25.7168 116.008 26.1389 116.031 26.2402C116.055 26.3473 116.029 26.2928 116.029 26.0081H104.029ZM105.733 32.1127C107.54 34.6433 110.248 35.4456 112.471 35.4456V23.4456C112.679 23.4456 113.177 23.4781 113.798 23.7529C114.466 24.0479 115.064 24.5308 115.498 25.1378L105.733 32.1127ZM112.471 35.4456C114.06 35.4456 115.624 35.1895 117.134 34.6713L113.237 23.3214C113.002 23.4021 112.756 23.4456 112.471 23.4456V35.4456ZM117.108 34.68C118.345 34.2616 119.575 33.7161 120.792 33.0754L115.203 22.4564C114.442 22.8573 113.797 23.1321 113.263 23.3127L117.108 34.68ZM111.998 27.7659V33.762H123.998V27.7659H111.998ZM115.106 28.5047C114.506 28.8347 113.873 29.0863 113.196 29.2614L116.198 40.8797C117.839 40.4559 119.406 39.8351 120.889 39.0193L115.106 28.5047ZM113.18 29.2656C112.651 29.4038 111.841 29.5198 110.674 29.5198V41.5198C112.579 41.5198 114.452 41.3362 116.214 40.8756L113.18 29.2656ZM133.545 35.1292L127.67 33.9095L126.171 41.1292H133.545V35.1292ZM136.103 22.8049L141.978 24.0246L142.002 23.9084L142.022 23.7913L136.103 22.8049ZM132.764 20.0706L127.649 16.9336L127.643 16.9433L127.637 16.9531L132.764 20.0706ZM131.26 24.3674L125.399 23.0829L125.396 23.0969L125.393 23.111L131.26 24.3674ZM128.955 35.1292V41.1292H133.806L134.822 36.3856L128.955 35.1292ZM121.396 35.1292L115.526 33.8907L113.999 41.1292H121.396V35.1292ZM126.064 13.0002V7.00024H121.198L120.194 11.7618L126.064 13.0002ZM132.099 13.0002L138.078 13.5117L138.635 7.00024H132.099V13.0002ZM131.787 16.6526L125.809 16.1411L125.252 22.6526H131.787V16.6526ZM131.943 16.6526V22.6526H135.538L137.233 19.4833L131.943 16.6526ZM134.619 13.5276L137.726 18.6606L137.75 18.6457L137.775 18.6306L134.619 13.5276ZM141.865 13.6643L137.96 18.2198L137.999 18.253L138.038 18.2854L141.865 13.6643ZM143.623 16.6526L137.816 18.1624L138.983 22.6526H143.623V16.6526ZM143.779 16.6526V22.6526H147.138L148.894 19.7891L143.779 16.6526ZM146.689 13.6057L149.758 18.7615L149.781 18.7481L149.803 18.7344L146.689 13.6057ZM154.678 14.2698L150.126 18.1789L150.137 18.1923L150.149 18.2055L154.678 14.2698ZM155.674 23.137L149.794 21.9393L149.794 21.94L155.674 23.137ZM153.232 35.1292V41.1292H158.134L159.112 36.3261L153.232 35.1292ZM145.674 35.1292L139.795 33.9274L138.323 41.1292H145.674V35.1292ZM148.193 22.8049L142.372 21.3497L142.341 21.4758L142.315 21.6032L148.193 22.8049ZM144.756 20.0901L139.623 16.9833L139.608 17.0081L139.593 17.0331L144.756 20.0901ZM143.271 24.5237L137.394 23.3171L137.393 23.322L143.271 24.5237ZM141.103 35.1292V41.1292H146.001L146.982 36.3308L141.103 35.1292ZM139.42 36.3488L141.978 24.0246L130.229 21.5853L127.67 33.9095L139.42 36.3488ZM142.022 23.7913C142.204 22.6956 142.396 21.4223 142.396 20.4417H130.396C130.396 20.3216 130.403 20.271 130.398 20.3262C130.394 20.3706 130.386 20.4577 130.369 20.5971C130.334 20.8782 130.275 21.279 130.185 21.8185L142.022 23.7913ZM142.396 20.4417C142.396 19.2326 142.194 17.2258 140.808 15.4162C139.19 13.3039 136.876 12.6057 134.99 12.6057V24.6057C134.579 24.6057 133.939 24.5389 133.211 24.2221C132.448 23.8898 131.78 23.3645 131.282 22.7132C130.807 22.0938 130.592 21.5033 130.495 21.1227C130.4 20.7501 130.396 20.4991 130.396 20.4417H142.396ZM134.99 12.6057C131.404 12.6057 128.974 14.773 127.649 16.9336L137.878 23.2075C137.845 23.2609 137.613 23.6254 137.067 23.9844C136.463 24.3822 135.724 24.6057 134.99 24.6057V12.6057ZM127.637 16.9531C126.545 18.7494 125.87 20.9328 125.399 23.0829L137.121 25.652C137.483 24 137.811 23.3188 137.89 23.188L127.637 16.9531ZM125.393 23.111L123.088 33.8727L134.822 36.3856L137.127 25.6239L125.393 23.111ZM128.955 29.1292H121.396V41.1292H128.955V29.1292ZM127.267 36.3676L131.935 14.2387L120.194 11.7618L115.526 33.8907L127.267 36.3676ZM126.064 19.0002H132.099V7.00024H126.064V19.0002ZM126.121 12.4887L125.809 16.1411L137.765 17.1641L138.078 13.5117L126.121 12.4887ZM131.787 22.6526H131.943V10.6526H131.787V22.6526ZM137.233 19.4833C137.47 19.0409 137.657 18.7871 137.765 18.6605C137.871 18.5369 137.867 18.5749 137.726 18.6606L131.512 8.39459C129.274 9.74905 127.738 11.7939 126.653 13.8218L137.233 19.4833ZM137.775 18.6306C137.58 18.7511 137.652 18.6096 138.349 18.6096V6.60962C136.052 6.60962 133.637 7.08009 131.463 8.42457L137.775 18.6306ZM138.349 18.6096C138.664 18.6096 138.738 18.6475 138.647 18.6202C138.537 18.5872 138.265 18.481 137.96 18.2198L145.77 9.10877C143.49 7.15447 140.724 6.60962 138.349 6.60962V18.6096ZM138.038 18.2854C137.965 18.2247 137.903 18.1619 137.853 18.103C137.804 18.0445 137.774 17.9977 137.758 17.9711C137.728 17.9193 137.764 17.9632 137.816 18.1624L149.43 15.1428C148.852 12.9218 147.71 10.7144 145.692 9.04316L138.038 18.2854ZM143.623 22.6526H143.779V10.6526H143.623V22.6526ZM148.894 19.7891C149.367 19.018 149.697 18.7982 149.758 18.7615L143.62 8.44995C141.495 9.71533 139.884 11.5267 138.664 13.5161L148.894 19.7891ZM149.803 18.7344C149.841 18.7114 150.005 18.6096 150.498 18.6096V6.60962C148.1 6.60962 145.725 7.17188 143.575 8.47699L149.803 18.7344ZM150.498 18.6096C150.823 18.6096 150.852 18.6593 150.705 18.6009C150.629 18.5709 150.527 18.5196 150.414 18.4396C150.3 18.3591 150.203 18.2683 150.126 18.1789L159.229 10.3606C156.855 7.5961 153.595 6.60962 150.498 6.60962V18.6096ZM150.149 18.2055C149.971 18.0009 149.955 17.8759 149.989 17.9939C150.029 18.131 150.103 18.4831 150.103 19.1331H162.103C162.103 16.2174 161.472 12.9414 159.206 10.334L150.149 18.2055ZM150.103 19.1331C150.103 19.9438 150.011 20.875 149.794 21.9393L161.553 24.3346C161.909 22.5865 162.103 20.8484 162.103 19.1331H150.103ZM149.794 21.94L147.353 33.9322L159.112 36.3261L161.553 24.3339L149.794 21.94ZM153.232 29.1292H145.674V41.1292H153.232V29.1292ZM151.552 36.3309L154.072 24.0067L142.315 21.6032L139.795 33.9274L151.552 36.3309ZM154.014 24.2601C154.347 22.9272 154.467 21.5483 154.467 20.2073H142.467C142.467 20.8714 142.404 21.2243 142.372 21.3497L154.014 24.2601ZM154.467 20.2073C154.467 18.8103 154.136 16.7491 152.545 14.9904L143.646 23.0413C142.55 21.8295 142.467 20.5626 142.467 20.2073H154.467ZM152.545 14.9904C151.006 13.2894 148.967 12.6057 147.099 12.6057V24.6057C146.648 24.6057 146.042 24.5303 145.377 24.2563C144.694 23.9753 144.105 23.5486 143.646 23.0413L152.545 14.9904ZM147.099 12.6057C143.587 12.6057 141.054 14.619 139.623 16.9833L149.889 23.1969C149.825 23.3016 149.566 23.6878 149.001 24.0457C148.39 24.4328 147.704 24.6057 147.099 24.6057V12.6057ZM139.593 17.0331C138.505 18.8698 137.847 21.1089 137.394 23.3171L149.149 25.7303C149.503 24.0062 149.834 23.2896 149.919 23.147L139.593 17.0331ZM137.393 23.322L135.225 33.9275L146.982 36.3308L149.15 25.7253L137.393 23.322ZM141.103 29.1292H133.545V41.1292H141.103V29.1292ZM166.182 32.6877L171.311 29.5748L169.559 26.6877H166.182V32.6877ZM166.025 32.6877V26.6877H160.443L160.041 32.2551L166.025 32.6877ZM164.932 39.9338L159.065 38.6747L159.061 38.6953L159.056 38.7158L164.932 39.9338ZM163.935 44.7385V50.7385H168.819L169.811 45.9565L163.935 44.7385ZM156.377 44.7385L150.507 43.4959L148.974 50.7385H156.377V44.7385ZM163.096 13.0002V7.00024H158.233L157.226 11.7576L163.096 13.0002ZM169.131 13.0002L175.104 13.5647L175.724 7.00024H169.131V13.0002ZM168.896 15.4807L162.923 14.9163L162.303 21.4807H168.896V15.4807ZM169.053 15.4807V21.4807H172.3L174.076 18.7614L169.053 15.4807ZM178.877 14.7971L174.179 18.5299L174.188 18.5402L174.196 18.5504L178.877 14.7971ZM179.248 28.2542L184.836 30.4394L184.84 30.4288L179.248 28.2542ZM175.615 33.6448L179.46 38.2508L179.464 38.2476L175.615 33.6448ZM167.959 22.8049L162.179 21.196L162.171 21.2237L162.163 21.2515L167.959 22.8049ZM167.9 28.6838L162.732 31.7317L167.9 28.6838ZM172.353 25.344L166.593 23.664L166.585 23.6917L166.577 23.7195L172.353 25.344ZM170.693 29.5198C170.74 29.5198 170.844 29.5264 170.984 29.5657C171.126 29.6055 171.255 29.6651 171.359 29.73C171.567 29.8606 171.515 29.911 171.311 29.5748L161.052 35.8007C163.048 39.0896 166.314 41.5198 170.693 41.5198V29.5198ZM166.182 26.6877H166.025V38.6877H166.182V26.6877ZM160.041 32.2551C159.909 34.0782 159.594 36.2114 159.065 38.6747L170.798 41.193C171.415 38.3177 171.829 35.6202 172.01 33.1203L160.041 32.2551ZM159.056 38.7158L158.06 43.5205L169.811 45.9565L170.807 41.1518L159.056 38.7158ZM163.935 38.7385H156.377V50.7385H163.935V38.7385ZM162.247 45.9811L168.965 14.2429L157.226 11.7576L150.507 43.4959L162.247 45.9811ZM163.096 19.0002H169.131V7.00024H163.096V19.0002ZM163.157 12.4358L162.923 14.9163L174.87 16.0451L175.104 13.5647L163.157 12.4358ZM168.896 21.4807H169.053V9.48071H168.896V21.4807ZM174.076 18.7614C174.178 18.6058 174.247 18.5324 174.27 18.5099C174.291 18.4899 174.275 18.5096 174.22 18.5406C174.195 18.5551 174.166 18.569 174.136 18.5811C174.106 18.5931 174.08 18.6012 174.06 18.6064C174.016 18.6173 174.021 18.6096 174.092 18.6096V6.60962C169.762 6.60962 166.277 8.7584 164.029 12.2L174.076 18.7614ZM174.092 18.6096C174.241 18.6096 174.323 18.623 174.351 18.6286C174.376 18.6338 174.36 18.6329 174.317 18.6133C174.297 18.6041 174.275 18.5925 174.252 18.5787C174.229 18.5648 174.21 18.5509 174.194 18.5383C174.16 18.5114 174.157 18.5018 174.179 18.5299L183.574 11.0643C181.164 8.03146 177.763 6.60962 174.092 6.60962V18.6096ZM174.196 18.5504C174.233 18.5965 174.615 19.0979 174.615 20.7737H186.615C186.615 17.3714 185.839 13.8884 183.558 11.0438L174.196 18.5504ZM174.615 20.7737C174.615 22.7115 174.284 24.4641 173.656 26.0795L184.84 30.4288C186.035 27.3567 186.615 24.1223 186.615 20.7737H174.615ZM173.66 26.0689C173.018 27.7095 172.321 28.5781 171.766 29.042L179.464 38.2476C181.93 36.1854 183.655 33.4602 184.836 30.4394L173.66 26.0689ZM171.77 29.0387C171.243 29.4783 170.937 29.5198 170.693 29.5198V41.5198C174.017 41.5198 176.992 40.3112 179.46 38.2508L171.77 29.0387ZM171.221 12.6838C168.015 12.6838 165.844 14.5743 164.656 16.0793L174.074 23.515C174.058 23.5355 173.125 24.6838 171.221 24.6838V12.6838ZM164.656 16.0793C163.425 17.6379 162.667 19.4424 162.179 21.196L173.739 24.4139C173.842 24.0455 173.938 23.7986 174.009 23.6469C174.08 23.4954 174.112 23.4678 174.074 23.515L164.656 16.0793ZM162.163 21.2515C161.69 23.019 161.451 24.8237 161.451 26.6526H173.451C173.451 25.8773 173.551 25.1169 173.754 24.3583L162.163 21.2515ZM161.451 26.6526C161.451 28.1306 161.701 29.9834 162.732 31.7317L173.068 25.6359C173.29 26.0123 173.384 26.3272 173.422 26.4995C173.459 26.6675 173.451 26.7317 173.451 26.6526H161.451ZM162.732 31.7317C164.008 33.8956 166.305 35.4456 169.17 35.4456V23.4456C169.863 23.4456 170.71 23.6185 171.529 24.1102C172.328 24.5892 172.809 25.1955 173.068 25.6359L162.732 31.7317ZM169.17 35.4456C172.439 35.4456 174.593 33.4534 175.716 31.9986L166.217 24.666C166.233 24.6448 166.451 24.3625 166.928 24.0668C167.453 23.7412 168.228 23.4456 169.17 23.4456V35.4456ZM175.716 31.9986C176.902 30.4622 177.644 28.6932 178.129 26.9685L166.577 23.7195C166.473 24.0898 166.375 24.3427 166.301 24.5029C166.226 24.6632 166.189 24.7022 166.217 24.666L175.716 31.9986ZM178.113 27.024C178.639 25.2227 178.9 23.3742 178.9 21.4963H166.9C166.9 22.2487 166.797 22.9653 166.593 23.664L178.113 27.024ZM178.9 21.4963C178.9 20.1576 178.735 18.1585 177.632 16.3105C176.235 13.9725 173.826 12.6838 171.221 12.6838V24.6838C170.646 24.6838 169.852 24.557 169.031 24.0988C168.203 23.6366 167.655 23.0083 167.329 22.4634C166.785 21.5529 166.9 20.9601 166.9 21.4963H178.9ZM195.166 28.3127L190.434 24.6236L190.43 24.6292L190.425 24.6348L195.166 28.3127ZM196.728 19.4651L191.362 22.1484L191.376 22.1757L191.389 22.203L196.728 19.4651ZM192.822 21.1643L187.43 18.5321L187.426 18.5409L187.422 18.5498L192.822 21.1643ZM201.435 35.1292V41.1292H206.298L207.305 36.3725L201.435 35.1292ZM195.4 35.1292L189.42 34.6429L188.893 41.1292H195.4V35.1292ZM195.596 32.7268L201.576 33.213L202.103 26.7268H195.596V32.7268ZM195.439 32.7268V26.7268H192.361L190.565 29.2276L195.439 32.7268ZM193.076 34.8948L195.726 40.2778L195.759 40.2615L195.792 40.2448L193.076 34.8948ZM185.517 33.3518L180.676 36.8962L180.684 36.9066L180.691 36.9169L185.517 33.3518ZM188.935 14.4651L185.054 9.88942L185.044 9.89801L185.034 9.90665L188.935 14.4651ZM196.65 13.3518L193.587 18.5109L193.617 18.5288L193.647 18.5462L196.65 13.3518ZM198.877 15.7346L193.705 18.7767L195.445 21.7346H198.877V15.7346ZM199.033 15.7346V21.7346H203.177L204.644 17.8589L199.033 15.7346ZM200.068 13.0002V7.00024H195.924L194.457 10.8759L200.068 13.0002ZM206.123 13.0002L211.993 14.2436L213.527 7.00024H206.123V13.0002ZM193.31 35.4456C196.562 35.4456 198.737 33.498 199.906 31.9907L190.425 24.6348C190.444 24.6107 190.661 24.3313 191.136 24.0413C191.659 23.7222 192.411 23.4456 193.31 23.4456V35.4456ZM199.898 32.0019C201.122 30.4312 201.886 28.6207 202.376 26.84L190.807 23.6527C190.595 24.4241 190.407 24.6578 190.434 24.6236L199.898 32.0019ZM202.376 26.84C202.859 25.0868 203.119 23.3006 203.119 21.4963H191.119C191.119 22.1399 191.027 22.8538 190.807 23.6527L202.376 26.84ZM203.119 21.4963C203.119 20.1215 202.921 18.3924 202.067 16.7272L191.389 22.203C191.213 21.8586 191.15 21.5948 191.129 21.4868C191.109 21.3791 191.119 21.3712 191.119 21.4963H203.119ZM202.095 16.7818C201.586 15.7641 200.762 14.6626 199.483 13.8374C198.182 12.9982 196.781 12.6838 195.517 12.6838V24.6838C194.801 24.6838 193.875 24.4997 192.978 23.9209C192.102 23.3561 191.61 22.6452 191.362 22.1484L202.095 16.7818ZM195.517 12.6838C190.754 12.6838 188.366 16.6149 187.43 18.5321L198.214 23.7965C198.439 23.3345 198.471 23.4372 198.164 23.7189C197.777 24.0751 196.86 24.6838 195.517 24.6838V12.6838ZM187.422 18.5498C186.192 21.0895 185.631 23.827 185.631 26.6526H197.631C197.631 25.4417 197.864 24.5203 198.223 23.7788L187.422 18.5498ZM185.631 26.6526C185.631 27.9892 185.797 29.9903 186.909 31.8396C188.314 34.1762 190.724 35.4456 193.31 35.4456V23.4456C193.878 23.4456 194.666 23.5698 195.484 24.0232C196.311 24.4812 196.863 25.1066 197.192 25.6551C197.745 26.5733 197.631 27.178 197.631 26.6526H185.631ZM201.435 29.1292H195.4V41.1292H201.435V29.1292ZM201.381 35.6154L201.576 33.213L189.615 32.2406L189.42 34.6429L201.381 35.6154ZM195.596 26.7268H195.439V38.7268H195.596V26.7268ZM190.565 29.2276C190.402 29.4555 190.29 29.5684 190.246 29.6091C190.204 29.6472 190.239 29.6059 190.36 29.5448L195.792 40.2448C197.724 39.2641 199.195 37.7841 200.313 36.226L190.565 29.2276ZM190.426 29.5118C190.456 29.497 190.468 29.4963 190.447 29.5008C190.424 29.506 190.348 29.5198 190.205 29.5198V41.5198C192.07 41.5198 193.953 41.151 195.726 40.2778L190.426 29.5118ZM190.205 29.5198C189.879 29.5198 189.862 29.464 190.009 29.532C190.079 29.5645 190.156 29.6117 190.227 29.6704C190.297 29.7281 190.334 29.7745 190.343 29.7867L180.691 36.9169C183.066 40.1308 186.559 41.5198 190.205 41.5198V29.5198ZM190.359 29.8074C190.338 29.7795 189.916 29.139 189.916 27.0823H177.916C177.916 30.4682 178.561 34.0075 180.676 36.8962L190.359 29.8074ZM189.916 27.0823C189.916 25.584 190.219 23.9499 190.927 22.1454L179.756 17.7613C178.564 20.8006 177.916 23.919 177.916 27.0823H189.916ZM190.927 22.1454C191.644 20.3182 192.362 19.4301 192.837 19.0235L185.034 9.90665C182.619 11.974 180.94 14.7447 179.756 17.7613L190.927 22.1454ZM192.817 19.0408C193.293 18.6364 193.552 18.6096 193.76 18.6096V6.60962C190.451 6.60962 187.494 7.8198 185.054 9.88942L192.817 19.0408ZM193.76 18.6096C193.853 18.6096 193.862 18.6199 193.81 18.6067C193.786 18.6003 193.751 18.5896 193.71 18.5727C193.669 18.5557 193.627 18.5349 193.587 18.5109L199.714 8.19268C197.839 7.0794 195.79 6.60962 193.76 6.60962V18.6096ZM193.647 18.5462C193.491 18.4557 193.429 18.3852 193.448 18.4053C193.47 18.4293 193.564 18.5364 193.705 18.7767L204.048 12.6925C203.042 10.9808 201.633 9.30218 199.653 8.1574L193.647 18.5462ZM198.877 21.7346H199.033V9.73462H198.877V21.7346ZM204.644 17.8589L205.68 15.1245L194.457 10.8759L193.422 13.6103L204.644 17.8589ZM200.068 19.0002H206.123V7.00024H200.068V19.0002ZM200.253 11.7569L195.566 33.8858L207.305 36.3725L211.993 14.2436L200.253 11.7569ZM227.861 43.2542V49.2542H232.756L233.739 44.4592L227.861 43.2542ZM220.654 43.2542L214.856 41.7106L212.848 49.2542H220.654V43.2542ZM222.978 34.5237L228.776 36.0672L230.088 31.1409L225.438 29.051L222.978 34.5237ZM220.928 31.4182L226.874 30.6187L226.175 25.4182H220.928V31.4182ZM220.771 31.4182V25.4182H217.33L215.592 28.3889L220.771 31.4182ZM217.978 34.5042L214.737 29.4551L214.723 29.4642L214.708 29.4735L217.978 34.5042ZM209.99 33.8596L205.571 37.9186L205.583 37.9315L205.595 37.9443L209.99 33.8596ZM208.935 24.7776L203.064 23.541L203.06 23.5618L203.056 23.5825L208.935 24.7776ZM211.416 13.0002V7.00024H206.548L205.545 11.7637L211.416 13.0002ZM218.974 13.0002L224.848 14.2282L226.359 7.00024H218.974V13.0002ZM216.455 25.051L222.3 26.4054L222.315 26.3423L222.328 26.2789L216.455 25.051ZM216.514 29.0745L212.371 33.4146L212.419 33.4605L212.468 33.5054L216.514 29.0745ZM219.658 27.9612L214.559 24.7986L214.554 24.8076L214.548 24.8166L219.658 27.9612ZM221.182 23.762L227.05 25.0132L227.051 25.0056L227.053 24.998L221.182 23.762ZM223.447 13.0002V7.00024H218.579L217.576 11.7642L223.447 13.0002ZM231.006 13.0002L236.876 14.2393L238.404 7.00024H231.006V13.0002ZM228.174 26.4182L222.303 25.1791L222.301 25.191L228.174 26.4182ZM230.732 29.2502L236.61 30.4553L238.57 20.8934L229.154 23.4617L230.732 29.2502ZM227.861 37.2542H220.654V49.2542H227.861V37.2542ZM226.452 44.7977L228.776 36.0672L217.18 32.9801L214.856 41.7106L226.452 44.7977ZM225.438 29.051C225.869 29.2448 226.303 29.5951 226.603 30.0503C226.872 30.457 226.888 30.7243 226.874 30.6187L214.981 32.2177C215.392 35.2757 217.014 38.4211 220.519 39.9964L225.438 29.051ZM220.928 25.4182H220.771V37.4182H220.928V25.4182ZM215.592 28.3889C215.135 29.1713 214.807 29.4104 214.737 29.4551L221.22 39.5532C223.26 38.2438 224.794 36.4255 225.95 34.4475L215.592 28.3889ZM214.708 29.4735C214.719 29.4666 214.719 29.4707 214.683 29.4808C214.64 29.4925 214.518 29.5198 214.287 29.5198V41.5198C216.697 41.5198 219.1 40.9311 221.248 39.5348L214.708 29.4735ZM214.287 29.5198C213.967 29.5198 213.904 29.4716 213.998 29.5079C214.045 29.5262 214.115 29.5592 214.193 29.6119C214.271 29.6648 214.336 29.7226 214.385 29.7749L205.595 37.9443C207.998 40.5296 211.17 41.5198 214.287 41.5198V29.5198ZM214.409 29.8006C214.448 29.8435 214.48 29.8885 214.503 29.9279C214.526 29.9663 214.529 29.9822 214.523 29.9628C214.508 29.9198 214.447 29.7081 214.447 29.2502H202.447C202.447 32.2647 203.262 35.4044 205.571 37.9186L214.409 29.8006ZM214.447 29.2502C214.447 28.3367 214.555 27.2505 214.815 25.9727L203.056 23.5825C202.664 25.5078 202.447 27.4034 202.447 29.2502H214.447ZM214.807 26.0141L217.287 14.2368L205.545 11.7637L203.064 23.541L214.807 26.0141ZM211.416 19.0002H218.974V7.00024H211.416V19.0002ZM213.101 11.7723L210.582 23.8231L222.328 26.2789L224.848 14.2282L213.101 11.7723ZM210.61 23.6967C210.299 25.037 210.084 26.4332 210.084 27.8049H222.084C222.084 27.6402 222.116 27.2005 222.3 26.4054L210.61 23.6967ZM210.084 27.8049C210.084 29.278 210.453 31.5837 212.371 33.4146L220.656 24.7343C222.002 26.0184 222.084 27.4777 222.084 27.8049H210.084ZM212.468 33.5054C213.867 34.783 215.66 35.4846 217.568 35.4846V23.4846C218.058 23.4846 218.612 23.5704 219.177 23.7901C219.741 24.0096 220.204 24.3189 220.559 24.6436L212.468 33.5054ZM217.568 35.4846C221.402 35.4846 223.69 32.8579 224.768 31.1058L214.548 24.8166C214.499 24.8971 214.658 24.6014 215.132 24.2553C215.68 23.8565 216.529 23.4846 217.568 23.4846V35.4846ZM224.757 31.1238C225.893 29.292 226.592 27.1587 227.05 25.0132L215.313 22.5107C215.016 23.9069 214.699 24.573 214.559 24.7986L224.757 31.1238ZM227.053 24.998L229.318 14.2363L217.576 11.7642L215.31 22.5259L227.053 24.998ZM223.447 19.0002H231.006V7.00024H223.447V19.0002ZM225.135 11.7612L222.303 25.1791L234.044 27.6573L236.876 14.2393L225.135 11.7612ZM222.301 25.191C222.117 26.0713 221.9 27.2351 221.9 28.2932H233.9C233.9 28.3649 233.898 28.4186 233.896 28.4507C233.895 28.4835 233.893 28.5028 233.893 28.5068C233.892 28.5124 233.895 28.4818 233.906 28.4071C233.928 28.2535 233.971 28.0062 234.047 27.6454L222.301 25.191ZM221.9 28.2932C221.9 29.8731 222.403 32.0758 224.337 33.7378C226.097 35.25 228.104 35.4846 229.287 35.4846V23.4846C229.545 23.4846 230.859 23.5207 232.157 24.6358C233.629 25.9006 233.9 27.5076 233.9 28.2932H221.9ZM229.287 35.4846C230.411 35.4846 231.461 35.2707 232.311 35.0388L229.154 23.4617C229.093 23.4781 229.048 23.4889 229.018 23.4957C228.988 23.5024 228.976 23.5042 228.981 23.5034C228.986 23.5026 229.014 23.4982 229.062 23.4939C229.11 23.4896 229.186 23.4846 229.287 23.4846V35.4846ZM224.855 28.0452L221.983 42.0491L233.739 44.4592L236.61 30.4553L224.855 28.0452ZM242.412 29.0745L238.269 33.4146L238.317 33.4605L238.366 33.5054L242.412 29.0745ZM245.557 27.9612L240.458 24.7986L240.452 24.8076L240.447 24.8166L245.557 27.9612ZM247.08 23.762L252.948 25.0132L252.95 25.0056L252.951 24.998L247.08 23.762ZM249.346 13.0002V7.00024H244.477L243.474 11.7642L249.346 13.0002ZM256.904 13.0002L262.775 14.2387L264.302 7.00024H256.904V13.0002ZM252.236 35.1292V41.1292H257.103L258.107 36.3676L252.236 35.1292ZM246.182 35.1292L240.202 34.6371L239.668 41.1292H246.182V35.1292ZM246.435 32.0432L252.415 32.5352L252.949 26.0432H246.435V32.0432ZM246.279 32.0432V26.0432H242.825L241.09 29.0304L246.279 32.0432ZM243.76 34.6995L246.721 39.9176L246.733 39.9111L246.744 39.9046L243.76 34.6995ZM235.889 33.8596L231.47 37.9186L231.482 37.9315L231.494 37.9443L235.889 33.8596ZM234.834 24.7776L228.963 23.541L228.958 23.5618L228.954 23.5825L234.834 24.7776ZM237.314 13.0002V7.00024H232.446L231.443 11.7637L237.314 13.0002ZM244.873 13.0002L250.746 14.2282L252.257 7.00024H244.873V13.0002ZM242.353 25.051L248.199 26.4054L248.213 26.3423L248.226 26.2789L242.353 25.051ZM235.982 27.8049C235.982 29.278 236.351 31.5837 238.269 33.4146L246.555 24.7343C247.9 26.0184 247.982 27.4777 247.982 27.8049H235.982ZM238.366 33.5054C239.766 34.783 241.558 35.4846 243.467 35.4846V23.4846C243.956 23.4846 244.51 23.5704 245.075 23.7901C245.639 24.0096 246.102 24.3189 246.458 24.6436L238.366 33.5054ZM243.467 35.4846C247.3 35.4846 249.588 32.8579 250.666 31.1058L240.447 24.8166C240.397 24.8971 240.556 24.6014 241.031 24.2553C241.578 23.8565 242.427 23.4846 243.467 23.4846V35.4846ZM250.655 31.1238C251.791 29.292 252.491 27.1587 252.948 25.0132L241.212 22.5107C240.914 23.9069 240.598 24.573 240.458 24.7986L250.655 31.1238ZM252.951 24.998L255.217 14.2363L243.474 11.7642L241.209 22.5259L252.951 24.998ZM249.346 19.0002H256.904V7.00024H249.346V19.0002ZM251.033 11.7618L246.365 33.8907L258.107 36.3676L262.775 14.2387L251.033 11.7618ZM252.236 29.1292H246.182V41.1292H252.236V29.1292ZM252.161 35.6212L252.415 32.5352L240.456 31.5512L240.202 34.6371L252.161 35.6212ZM246.435 26.0432H246.279V38.0432H246.435V26.0432ZM241.09 29.0304C240.789 29.5497 240.639 29.5724 240.775 29.4943L246.744 39.9046C248.833 38.7068 250.363 36.9586 251.468 35.056L241.09 29.0304ZM240.798 29.4813C240.957 29.3912 240.852 29.5198 240.185 29.5198V41.5198C242.357 41.5198 244.635 41.1015 246.721 39.9176L240.798 29.4813ZM240.185 29.5198C239.866 29.5198 239.802 29.4716 239.897 29.5079C239.944 29.5262 240.013 29.5592 240.091 29.6119C240.17 29.6648 240.235 29.7226 240.283 29.7749L231.494 37.9443C233.896 40.5296 237.069 41.5198 240.185 41.5198V29.5198ZM240.307 29.8006C240.347 29.8435 240.379 29.8885 240.402 29.9279C240.424 29.9663 240.428 29.9822 240.421 29.9628C240.407 29.9198 240.346 29.7081 240.346 29.2502H228.346C228.346 32.2647 229.16 35.4044 231.47 37.9186L240.307 29.8006ZM240.346 29.2502C240.346 28.3367 240.454 27.2505 240.714 25.9727L228.954 23.5825C228.563 25.5078 228.346 27.4034 228.346 29.2502H240.346ZM240.705 26.0141L243.186 14.2368L231.443 11.7637L228.963 23.541L240.705 26.0141ZM237.314 19.0002H244.873V7.00024H237.314V19.0002ZM239 11.7723L236.48 23.8231L248.226 26.2789L250.746 14.2282L239 11.7723ZM236.508 23.6967C236.198 25.037 235.982 26.4332 235.982 27.8049H247.982C247.982 27.6402 248.014 27.2005 248.199 26.4054L236.508 23.6967ZM268.896 27.9807L272.966 32.3895L272.996 32.3617L273.026 32.3335L268.896 27.9807ZM266.826 31.1643L272.123 33.982L272.128 33.973L272.133 33.964L266.826 31.1643ZM264.99 33.8596L269.233 38.1023L264.99 33.8596ZM257.236 35.012H251.236V39.2823L255.271 40.681L257.236 35.012ZM257.236 29.1721L259.706 23.7039L251.236 19.879V29.1721H257.236ZM259.619 29.0549L263.367 33.7401L263.423 33.6953L263.478 33.6492L259.619 29.0549ZM260.752 27.7268L265.662 31.1746L265.704 31.1153L265.744 31.055L260.752 27.7268ZM262.295 26.0862L258.862 21.1654L262.295 26.0862ZM264.424 25.2854L265.41 31.2038L284.31 28.0538L266.989 19.8615L264.424 25.2854ZM262.119 23.4495L257.27 26.9834L257.29 27.01L257.309 27.0364L262.119 23.4495ZM264.053 15.0315L267.576 19.8883L267.587 19.8802L267.598 19.8721L264.053 15.0315ZM281.709 13.0002L287.58 14.2387L289.107 7.00024H281.709V13.0002ZM277.041 35.1292V41.1292H281.907L282.912 36.3676L277.041 35.1292ZM269.482 35.1292L263.62 33.8491L262.031 41.1292H269.482V35.1292ZM271.201 27.2581L277.063 28.5381L278.653 21.2581H271.201V27.2581ZM272.197 22.4534V28.4534H277.073L278.07 23.6802L272.197 22.4534ZM273.115 18.0588L278.988 19.2857L280.498 12.0588H273.115V18.0588ZM270.791 21.2581C268.632 21.2581 266.482 22.0005 264.767 23.6279L273.026 32.3335C272.726 32.6178 272.34 32.8728 271.889 33.0447C271.447 33.2135 271.059 33.2581 270.791 33.2581V21.2581ZM264.827 23.5719C263.456 24.8368 262.343 26.8034 261.519 28.3647L272.133 33.964C272.52 33.2302 272.817 32.7237 273.028 32.3992C273.132 32.2396 273.191 32.1614 273.206 32.1423C273.23 32.1116 273.15 32.2202 272.966 32.3895L264.827 23.5719ZM261.529 28.3466C261.279 28.8155 261.075 29.1506 260.92 29.3783C260.759 29.6152 260.696 29.668 260.747 29.617L269.233 38.1023C270.42 36.9146 271.361 35.4143 272.123 33.982L261.529 28.3466ZM260.747 29.617C260.783 29.5816 260.83 29.5432 260.883 29.5097C260.936 29.4765 260.975 29.461 260.986 29.457L265.01 40.7622C266.591 40.1994 268.024 39.3109 269.233 38.1023L260.747 29.617ZM260.986 29.457C261.045 29.4359 261.014 29.4544 260.856 29.4767C260.7 29.4989 260.456 29.5198 260.107 29.5198V41.5198C261.687 41.5198 263.386 41.3402 265.01 40.7622L260.986 29.457ZM260.107 29.5198C259.904 29.5198 259.61 29.4847 259.201 29.3429L255.271 40.681C256.815 41.2163 258.436 41.5198 260.107 41.5198V29.5198ZM263.236 35.012V29.1721H251.236V35.012H263.236ZM254.767 34.6403C255.718 35.0699 256.94 35.4456 258.349 35.4456V23.4456C259.082 23.4456 259.562 23.639 259.706 23.7039L254.767 34.6403ZM258.349 35.4456C259.885 35.4456 261.735 35.0461 263.367 33.7401L255.871 24.3697C256.852 23.5846 257.856 23.4456 258.349 23.4456V35.4456ZM263.478 33.6492C264.394 32.88 265.123 31.9428 265.662 31.1746L255.841 24.279C255.775 24.3729 255.72 24.4482 255.675 24.5072C255.629 24.5665 255.598 24.6042 255.581 24.6241C255.564 24.6446 255.567 24.6392 255.592 24.6146C255.615 24.5908 255.671 24.5354 255.76 24.4607L263.478 33.6492ZM265.744 31.055C265.816 30.9471 265.858 30.9022 265.86 30.8999C265.861 30.8986 265.819 30.9431 265.728 31.0069L258.862 21.1654C257.56 22.0735 256.548 23.2152 255.76 24.3986L265.744 31.055ZM265.728 31.0069C265.384 31.2472 265.195 31.2396 265.41 31.2038L263.437 19.367C261.933 19.6177 260.326 20.1439 258.862 21.1654L265.728 31.0069ZM266.989 19.8615C266.89 19.8146 266.857 19.7863 266.863 19.7917C266.866 19.7938 266.875 19.8015 266.888 19.815C266.902 19.8286 266.916 19.8448 266.929 19.8625L257.309 27.0364C258.532 28.6764 260.109 29.8819 261.858 30.7093L266.989 19.8615ZM266.968 19.9155C267.035 20.0078 267.123 20.1593 267.19 20.3624C267.257 20.5664 267.279 20.7524 267.279 20.8909H255.279C255.279 23.1175 255.973 25.2041 257.27 26.9834L266.968 19.9155ZM267.279 20.8909C267.279 20.3318 267.378 20.1069 267.396 20.0692C267.407 20.0457 267.416 20.0319 267.429 20.0164C267.443 19.9995 267.484 19.9547 267.576 19.8883L260.53 10.1746C256.916 12.7957 255.279 16.6764 255.279 20.8909H267.279ZM267.598 19.8721C268.01 19.5703 269.217 19.0002 272.041 19.0002V7.00024C267.911 7.00024 263.793 7.78432 260.507 10.1909L267.598 19.8721ZM272.041 19.0002H281.709V7.00024H272.041V19.0002ZM275.838 11.7618L271.17 33.8907L282.912 36.3676L287.58 14.2387L275.838 11.7618ZM277.041 29.1292H269.482V41.1292H277.041V29.1292ZM275.344 36.4092L277.063 28.5381L265.339 25.978L263.62 33.8491L275.344 36.4092ZM271.201 21.2581H270.791V33.2581H271.201V21.2581ZM272.158 12.0588C270.419 12.0588 268.001 12.3876 265.941 14.063C263.643 15.9315 262.916 18.5262 262.916 20.6956H274.916C274.916 20.8597 274.892 21.2776 274.67 21.8175C274.434 22.3942 274.039 22.9448 273.512 23.373C272.533 24.1696 271.736 24.0588 272.158 24.0588V12.0588ZM262.916 20.6956C262.916 22.5597 263.544 24.9316 265.654 26.6577C267.533 28.1952 269.683 28.4534 271.064 28.4534V16.4534C271.096 16.4534 271.335 16.4545 271.703 16.5549C272.085 16.659 272.661 16.8864 273.252 17.3702C274.646 18.5103 274.916 20.0033 274.916 20.6956H262.916ZM271.064 28.4534H272.197V16.4534H271.064V28.4534ZM278.07 23.6802L278.988 19.2857L267.242 16.832L266.324 21.2265L278.07 23.6802ZM273.115 12.0588H272.158V24.0588H273.115V12.0588Z" fill="white"/>
<path d="M32.0214 15.1292C32.0214 18.4104 30.9016 20.9885 28.662 22.8635C26.4354 24.7255 23.382 25.6565 19.5018 25.6565H17.8221L15.869 35.1292H8.2323L14.2675 6.57446H21.5526C24.925 6.57446 27.5096 7.31665 29.3065 8.80103C31.1164 10.2724 32.0214 12.3818 32.0214 15.1292ZM19.1893 19.4065H20.4198C21.6047 19.4065 22.5617 19.0289 23.2909 18.2737C24.0201 17.5055 24.3846 16.5354 24.3846 15.3635C24.3846 14.5953 24.1503 13.9768 23.6815 13.5081C23.2128 13.0393 22.5682 12.8049 21.7479 12.8049H20.5956L19.1893 19.4065ZM42.9003 35.5198C40.1399 35.5198 37.9914 34.7515 36.455 33.2151C34.9185 31.6656 34.1503 29.5172 34.1503 26.7698C34.1503 24.0224 34.6906 21.5484 35.7714 19.3479C36.8651 17.1344 38.356 15.4612 40.244 14.3284C42.1451 13.1825 44.3391 12.6096 46.826 12.6096C49.3 12.6096 51.2466 13.1695 52.6659 14.2893C54.0852 15.4091 54.7948 16.9 54.7948 18.762C54.7948 21.3792 53.7727 23.3909 51.7284 24.7971C49.6971 26.1903 46.7544 26.887 42.9003 26.887H41.7479V27.1995C41.7479 29.1265 42.8156 30.0901 44.951 30.0901C45.9797 30.0901 46.9888 29.9403 47.9784 29.6409C48.968 29.3284 50.0943 28.8401 51.3573 28.176V33.5276C49.899 34.2698 48.5383 34.7906 47.2753 35.0901C46.0122 35.3765 44.5539 35.5198 42.9003 35.5198ZM45.9862 17.7268C45.1919 17.7268 44.4497 18.1825 43.7596 19.094C43.0695 19.9924 42.6529 21.0146 42.5096 22.1604H43.076C44.4953 22.1604 45.6086 21.8935 46.4159 21.3596C47.2232 20.8127 47.6268 20.0966 47.6268 19.2112C47.6268 18.7945 47.4966 18.443 47.2362 18.1565C46.9758 17.87 46.5591 17.7268 45.9862 17.7268ZM58.955 14.4456C60.0096 13.8596 61.2466 13.4104 62.6659 13.0979C64.0982 12.7724 65.5109 12.6096 66.9042 12.6096C69.4563 12.6096 71.4484 13.1565 72.8807 14.2502C74.313 15.331 75.0292 16.8479 75.0292 18.801C75.0292 20.3375 74.7622 21.6005 74.2284 22.5901C73.7076 23.5667 72.8352 24.426 71.6112 25.1682C70.4003 25.9104 68.5969 26.6591 66.201 27.4143C65.1073 27.7528 64.4432 28.0198 64.2089 28.2151C63.9875 28.4104 63.8768 28.6773 63.8768 29.0159C63.8768 29.3153 64.0135 29.5497 64.287 29.719C64.5734 29.8883 65.1008 29.9729 65.869 29.9729C66.6242 29.9729 67.6073 29.8101 68.8182 29.4846C70.0292 29.1591 71.2206 28.7229 72.3925 28.176V33.7229C71.1945 34.3349 69.9315 34.7906 68.6034 35.0901C67.2883 35.3765 65.7909 35.5198 64.1112 35.5198C61.5461 35.5198 59.58 34.9403 58.2128 33.7815C56.8456 32.6096 56.162 30.9495 56.162 28.801C56.162 26.926 56.787 25.3896 58.037 24.1917C59.3 22.9807 61.3247 21.9716 64.1112 21.1643C64.9706 20.9299 65.6412 20.7021 66.1229 20.4807C66.6047 20.2594 66.9432 20.038 67.1385 19.8167C67.3339 19.5953 67.4315 19.2698 67.4315 18.8401C67.4315 18.1239 66.8586 17.7659 65.7128 17.7659C64.2805 17.7659 62.6268 18.2737 60.7518 19.2893L58.955 14.4456ZM85.4198 27.8049C85.4198 28.3778 85.563 28.801 85.8495 29.0745C86.149 29.3479 86.5005 29.4846 86.9042 29.4846C87.6724 29.4846 88.369 28.9768 88.994 27.9612C89.632 26.9325 90.1399 25.5328 90.5175 23.762L92.7831 13.0002H100.342L95.6737 35.1292H89.619L89.8729 32.0432H89.7167C89.0135 33.2542 88.1737 34.1396 87.1971 34.6995C86.2336 35.2463 85.0422 35.5198 83.6229 35.5198C81.787 35.5198 80.3547 34.9664 79.326 33.8596C78.2974 32.7398 77.7831 31.2034 77.7831 29.2502C77.7831 27.87 77.9458 26.3792 78.2714 24.7776L80.7518 13.0002H88.3104L85.7909 25.051C85.5435 26.1187 85.4198 27.0367 85.4198 27.8049ZM110.674 35.5198C108.083 35.5198 106.058 34.7385 104.599 33.176C103.154 31.6005 102.432 29.3739 102.432 26.4963C102.432 23.8792 102.926 21.5094 103.916 19.387C104.918 17.2515 106.318 15.5914 108.115 14.4065C109.925 13.2086 111.976 12.6096 114.267 12.6096C116.807 12.6096 119.196 13.1305 121.435 14.1721L119.033 19.7776C117.301 18.9963 115.836 18.6057 114.639 18.6057C113.831 18.6057 113.083 18.9182 112.392 19.5432C111.702 20.1682 111.136 21.1057 110.693 22.3557C110.251 23.5927 110.029 24.8101 110.029 26.0081C110.029 27.193 110.224 28.0653 110.615 28.6252C111.006 29.1721 111.624 29.4456 112.471 29.4456C113.408 29.4456 114.313 29.2958 115.185 28.9963C116.071 28.6969 117.008 28.2867 117.998 27.7659V33.762C116.956 34.3349 115.856 34.7711 114.697 35.0706C113.551 35.37 112.21 35.5198 110.674 35.5198ZM133.545 35.1292L136.103 22.8049C136.299 21.6331 136.396 20.8453 136.396 20.4417C136.396 19.2177 135.928 18.6057 134.99 18.6057C134.105 18.6057 133.363 19.094 132.764 20.0706C132.178 21.0341 131.676 22.4664 131.26 24.3674L128.955 35.1292H121.396L126.064 13.0002H132.099L131.787 16.6526H131.943C132.738 15.1682 133.629 14.1265 134.619 13.5276C135.609 12.9156 136.852 12.6096 138.349 12.6096C139.873 12.6096 141.045 12.9612 141.865 13.6643C142.698 14.3544 143.284 15.3505 143.623 16.6526H143.779C144.626 15.2724 145.596 14.2568 146.689 13.6057C147.783 12.9417 149.053 12.6096 150.498 12.6096C152.334 12.6096 153.727 13.163 154.678 14.2698C155.628 15.3635 156.103 16.9846 156.103 19.1331C156.103 20.3961 155.96 21.7307 155.674 23.137L153.232 35.1292H145.674L148.193 22.8049C148.376 22.0758 148.467 21.2099 148.467 20.2073C148.467 19.6864 148.343 19.2893 148.096 19.0159C147.848 18.7424 147.516 18.6057 147.099 18.6057C146.136 18.6057 145.355 19.1005 144.756 20.0901C144.17 21.0797 143.675 22.5575 143.271 24.5237L141.103 35.1292H133.545ZM170.693 35.5198C168.831 35.5198 167.327 34.5758 166.182 32.6877H166.025C165.869 34.8492 165.504 37.2646 164.932 39.9338L163.935 44.7385H156.377L163.096 13.0002H169.131L168.896 15.4807H169.053C170.303 13.5667 171.982 12.6096 174.092 12.6096C176.123 12.6096 177.718 13.3388 178.877 14.7971C180.036 16.2424 180.615 18.2346 180.615 20.7737C180.615 23.4169 180.159 25.9104 179.248 28.2542C178.336 30.5849 177.126 32.3818 175.615 33.6448C174.118 34.8948 172.477 35.5198 170.693 35.5198ZM171.221 18.6838C170.57 18.6838 169.951 19.0549 169.365 19.7971C168.779 20.5393 168.31 21.5419 167.959 22.8049C167.62 24.068 167.451 25.3505 167.451 26.6526C167.451 27.4989 167.601 28.176 167.9 28.6838C168.2 29.1917 168.623 29.4456 169.17 29.4456C169.795 29.4456 170.394 29.0745 170.967 28.3323C171.54 27.5901 172.002 26.594 172.353 25.344C172.718 24.094 172.9 22.8114 172.9 21.4963C172.9 19.6213 172.34 18.6838 171.221 18.6838ZM193.31 29.4456C193.961 29.4456 194.58 29.068 195.166 28.3127C195.765 27.5445 196.24 26.5224 196.592 25.2463C196.943 23.9703 197.119 22.7203 197.119 21.4963C197.119 20.65 196.989 19.9729 196.728 19.4651C196.468 18.9443 196.064 18.6838 195.517 18.6838C194.528 18.6838 193.629 19.5107 192.822 21.1643C192.028 22.8049 191.631 24.6344 191.631 26.6526C191.631 28.5146 192.191 29.4456 193.31 29.4456ZM201.435 35.1292H195.4L195.596 32.7268H195.439C194.71 33.7424 193.922 34.4651 193.076 34.8948C192.23 35.3114 191.273 35.5198 190.205 35.5198C188.148 35.5198 186.585 34.7971 185.517 33.3518C184.45 31.8935 183.916 29.8036 183.916 27.0823C183.916 24.7515 184.391 22.3752 185.342 19.9534C186.292 17.5315 187.49 15.7021 188.935 14.4651C190.394 13.2281 192.002 12.6096 193.76 12.6096C194.853 12.6096 195.817 12.857 196.65 13.3518C197.484 13.8336 198.226 14.6278 198.877 15.7346H199.033L200.068 13.0002H206.123L201.435 35.1292ZM227.861 43.2542H220.654L222.978 34.5237C221.82 34.0028 221.136 32.9677 220.928 31.4182H220.771C219.964 32.7984 219.033 33.8271 217.978 34.5042C216.937 35.1812 215.706 35.5198 214.287 35.5198C212.451 35.5198 211.019 34.9664 209.99 33.8596C208.961 32.7398 208.447 31.2034 208.447 29.2502C208.447 27.87 208.61 26.3792 208.935 24.7776L211.416 13.0002H218.974L216.455 25.051C216.208 26.1187 216.084 27.0367 216.084 27.8049C216.084 28.3778 216.227 28.801 216.514 29.0745C216.813 29.3479 217.165 29.4846 217.568 29.4846C218.336 29.4846 219.033 28.9768 219.658 27.9612C220.296 26.9325 220.804 25.5328 221.182 23.762L223.447 13.0002H231.006L228.174 26.4182C227.991 27.2906 227.9 27.9156 227.9 28.2932C227.9 29.0875 228.363 29.4846 229.287 29.4846C229.678 29.4846 230.159 29.4065 230.732 29.2502L227.861 43.2542ZM241.982 27.8049C241.982 28.3778 242.126 28.801 242.412 29.0745C242.711 29.3479 243.063 29.4846 243.467 29.4846C244.235 29.4846 244.932 28.9768 245.557 27.9612C246.195 26.9325 246.702 25.5328 247.08 23.762L249.346 13.0002H256.904L252.236 35.1292H246.182L246.435 32.0432H246.279C245.576 33.2542 244.736 34.1396 243.76 34.6995C242.796 35.2463 241.605 35.5198 240.185 35.5198C238.349 35.5198 236.917 34.9664 235.889 33.8596C234.86 32.7398 234.346 31.2034 234.346 29.2502C234.346 27.87 234.508 26.3792 234.834 24.7776L237.314 13.0002H244.873L242.353 25.051C242.106 26.1187 241.982 27.0367 241.982 27.8049ZM270.791 27.2581C270.036 27.2581 269.404 27.4989 268.896 27.9807C268.389 28.4495 267.698 29.5107 266.826 31.1643C266.175 32.3883 265.563 33.2867 264.99 33.8596C264.43 34.4195 263.766 34.8362 262.998 35.1096C262.23 35.3831 261.266 35.5198 260.107 35.5198C259.17 35.5198 258.213 35.3505 257.236 35.012V29.1721C257.64 29.3544 258.011 29.4456 258.349 29.4456C258.87 29.4456 259.293 29.3153 259.619 29.0549C259.945 28.7815 260.322 28.3388 260.752 27.7268C261.221 27.0237 261.735 26.4768 262.295 26.0862C262.855 25.6956 263.564 25.4286 264.424 25.2854C263.46 24.8297 262.692 24.2177 262.119 23.4495C261.559 22.6812 261.279 21.8284 261.279 20.8909C261.279 18.3258 262.204 16.3726 264.053 15.0315C265.902 13.6773 268.564 13.0002 272.041 13.0002H281.709L277.041 35.1292H269.482L271.201 27.2581H270.791ZM272.158 18.0588C269.997 18.0588 268.916 18.9377 268.916 20.6956C268.916 21.8674 269.632 22.4534 271.064 22.4534H272.197L273.115 18.0588H272.158Z" fill="#F07F18"/>

</svg>
